<?xml version="1.0" standalone="no"?><!DOCTYPE svg PUBLIC "-//W3C//DTD SVG 1.1//EN" "http://www.w3.org/Graphics/SVG/1.1/DTD/svg11.dtd"><svg class="icon" width="200px" height="200.00px" viewBox="0 0 1024 1024" version="1.1" xmlns="http://www.w3.org/2000/svg"><path fill="#2c2c2c" d="M799.84 144H672V128a32 32 0 0 0-64 0v16h-192V128a32 32 0 0 0-64 0v16H223.712C188.576 144 160 174.016 160 210.912V304h704V210.912c0-36.896-28.768-66.912-64.16-66.912M640 496a32 32 0 0 1 0 64h-256a32 32 0 0 1 0-64h256z m-288 192a32 32 0 0 1 32-32h256a32 32 0 0 1 0 64h-256a32 32 0 0 1-32-32z m480-320H160v477.12c0 36.864 28.608 66.88 63.744 66.88h576.512c35.136 0 63.744-30.016 63.744-66.88V368h-32z" /></svg>