<?xml version="1.0" standalone="no"?><!DOCTYPE svg PUBLIC "-//W3C//DTD SVG 1.1//EN" "http://www.w3.org/Graphics/SVG/1.1/DTD/svg11.dtd"><svg class="icon" width="200px" height="200.00px" viewBox="0 0 1024 1024" version="1.1" xmlns="http://www.w3.org/2000/svg"><path fill="#2c2c2c" d="M683.968 534.944H544v139.968a32 32 0 0 1-64 0v-139.968h-139.968a32 32 0 0 1 0-64H480v-139.968a32 32 0 0 1 64 0v139.968h139.968a32 32 0 0 1 0 64M512 128C300.256 128 128 300.288 128 512c0 211.744 172.256 384 384 384s384-172.256 384-384c0-211.712-172.256-384-384-384" /></svg>