<?xml version="1.0" standalone="no"?><!DOCTYPE svg PUBLIC "-//W3C//DTD SVG 1.1//EN" "http://www.w3.org/Graphics/SVG/1.1/DTD/svg11.dtd"><svg class="icon" width="200px" height="200.00px" viewBox="0 0 1024 1024" version="1.1" xmlns="http://www.w3.org/2000/svg"><path fill="#2c2c2c" d="M221.216 663.68v-75.68h581.6v76l-581.6-0.32zM802.784 224.32v299.68H221.248V224l581.568 0.32z m0-64.32H221.216C187.424 160 160 188.864 160 224.32v439.36c0 35.488 27.424 64.32 61.184 64.32h260.192v52h-91.84c-16.864 0-30.592 14.336-30.592 32 0 17.696 13.728 32 30.624 32h244.864c16.896 0 30.624-14.304 30.624-32 0-17.664-13.728-32-30.624-32h-91.84V728h260.224c33.76 0 61.184-28.832 61.184-64.32V224.32C864 188.864 836.576 160 802.816 160z" /></svg>