<?xml version="1.0" standalone="no"?><!DOCTYPE svg PUBLIC "-//W3C//DTD SVG 1.1//EN" "http://www.w3.org/Graphics/SVG/1.1/DTD/svg11.dtd"><svg class="icon" width="200px" height="200.00px" viewBox="0 0 1024 1024" version="1.1" xmlns="http://www.w3.org/2000/svg"><path fill="#2c2c2c" d="M221.216 588H160v75.712c0 35.456 27.424 64.288 61.184 64.288h260.192v52h-91.808c-16.896 0-30.624 14.336-30.624 32 0 17.696 13.728 32 30.624 32h244.864c16.896 0 30.624-14.304 30.624-32 0-17.664-13.728-32-30.624-32h-91.808V728h260.192c33.76 0 61.184-28.832 61.184-64.288v-75.712H221.216zM802.816 160H221.184C187.424 160 160 188.864 160 224.32v299.68h704V224.32C864 188.864 836.576 160 802.816 160" /></svg>