<?xml version="1.0" standalone="no"?><!DOCTYPE svg PUBLIC "-//W3C//DTD SVG 1.1//EN" "http://www.w3.org/Graphics/SVG/1.1/DTD/svg11.dtd"><svg class="icon" width="200px" height="200.00px" viewBox="0 0 1024 1024" version="1.1" xmlns="http://www.w3.org/2000/svg"><path fill="#2c2c2c" d="M384 416.032c0-70.592 57.408-128 128-128s128 57.408 128 128-57.408 128-128 128-128-57.408-128-128m128.32-288h-0.64c-158.624 0.16-287.68 129.312-287.68 288 0 80.512 64.032 195.008 126.72 288a2026.4 2026.4 0 0 0 116.512 155.584 57.92 57.92 0 0 0 44.8 21.856h0.096a57.504 57.504 0 0 0 44.512-21.696 2024.256 2024.256 0 0 0 116.64-155.744c62.688-92.992 126.72-207.488 126.72-288 0-158.688-129.056-287.84-287.68-288" /></svg>