<?xml version="1.0" standalone="no"?><!DOCTYPE svg PUBLIC "-//W3C//DTD SVG 1.1//EN" "http://www.w3.org/Graphics/SVG/1.1/DTD/svg11.dtd"><svg class="icon" width="200px" height="200.00px" viewBox="0 0 1024 1024" version="1.1" xmlns="http://www.w3.org/2000/svg"><path fill="#2c2c2c" d="M680.608 384h-224a32 32 0 1 1 0-64h224a32 32 0 1 1 0 64m0 160h-224a32 32 0 1 1 0-64h224a32 32 0 1 1 0 64m0 160h-224a32 32 0 1 1 0-64h224a32 32 0 1 1 0 64m-328.64-320a32 32 0 1 1 0-64 32 32 0 0 1 0 64m0 160a32.032 32.032 0 0 1 0-64 32 32 0 0 1 0 64m0 160a32.032 32.032 0 0 1 0-64 32 32 0 0 1 0 64M799.872 160H223.68A63.776 63.776 0 0 0 160 223.744v576.512C160 835.392 188.608 864 223.776 864h576.512a63.776 63.776 0 0 0 63.68-63.744V223.744A64 64 0 0 0 799.872 160" /></svg>