<?xml version="1.0" standalone="no"?><!DOCTYPE svg PUBLIC "-//W3C//DTD SVG 1.1//EN" "http://www.w3.org/Graphics/SVG/1.1/DTD/svg11.dtd"><svg t="1539090610512" class="icon" style="" viewBox="0 0 1024 1024" version="1.1" xmlns="http://www.w3.org/2000/svg" p-id="1403" xmlns:xlink="http://www.w3.org/1999/xlink" width="200" height="200"><defs><style type="text/css"></style></defs><path d="M512.98304 511.27808m-424.832 0a424.832 424.832 0 1 0 849.664 0 424.832 424.832 0 1 0-849.664 0Z" fill="#BAD4FF" p-id="1404"></path><path d="M512.98304 960.32768c-247.60832 0-449.0496-201.4464-449.0496-449.05472s201.44128-449.0496 449.0496-449.0496 449.05472 201.44128 449.05472 449.0496-201.4464 449.05472-449.05472 449.05472z m0-849.664c-220.9024 0-400.6144 179.71712-400.6144 400.6144 0 220.89728 179.71712 400.6144 400.6144 400.6144 220.89728 0 400.6144-179.71712 400.6144-400.6144 0-220.9024-179.71712-400.6144-400.6144-400.6144z" fill="#4E8CEE" p-id="1405"></path><path d="M62.29504 350.58176H965.12v322.83648H62.29504z" fill="#FFFFFF" p-id="1406"></path><path d="M335.40096 581.04832c-10.4448 8.68864-23.20384 13.03552-38.26688 13.03552a65.8944 65.8944 0 0 1-34.52416-9.56416c-10.63424-6.37952-18.46272-16.01536-23.5008-28.90752-5.03808-12.9024-7.55712-27.99104-7.55712-45.27616 0-13.39904 2.1248-26.40896 6.37952-39.02976 4.25472-12.61568 11.6224-22.67136 22.1184-30.16192 10.49088-7.48544 23.54688-11.22816 39.168-11.22816 13.58848 0 24.86272 3.37408 33.83296 10.12736 8.96512 6.74304 15.80544 17.51552 20.52096 32.3072l26.48576-6.24128c-5.45792-18.7648-15.11424-33.32608-28.9792-43.6736-13.86496-10.35264-30.96576-15.52896-51.3024-15.52896-17.93536 0-34.36544 4.09088-49.29024 12.26752-14.9248 8.17664-26.43968 20.15232-34.52416 35.91168-8.0896 15.75936-12.1344 34.2272-12.1344 55.39328 0 19.40992 3.584 37.57568 10.74688 54.49216 7.16288 16.9216 17.60768 29.83424 31.3344 38.75328s31.54432 13.37344 53.4528 13.37344c21.16608 0 39.07584-5.80096 53.72928-17.39264 14.64832-11.60704 24.79616-28.45184 30.43328-50.54464l-26.89536-6.78912c-3.70688 17.09568-10.78272 29.99296-21.22752 38.67648zM538.54208 531.28192c-3.70176-3.328-9.10848-6.71232-16.2304-10.13248 19.51232-2.67776 33.93024-8.96 43.25888-18.85696 9.33888-9.89184 14.00832-22.04672 14.00832-36.46464 0-11.1872-2.82112-21.4016-8.45824-30.6432-5.64224-9.2416-13.16864-15.68768-22.59968-19.34336-9.43104-3.65056-23.19872-5.4784-41.32352-5.4784H417.07008v203.26912h26.89536v-90.26048h31.19616c6.93248 0 11.92448 0.32256 14.976 0.96256 4.16256 1.01376 8.24832 2.82112 12.27264 5.41184 4.02432 2.59584 8.57088 7.12704 13.65504 13.58848 5.08416 6.47168 11.56608 15.80544 19.41504 28.01152l26.90048 42.28608h33.83296l-35.35872-55.32672c-7.02464-10.8032-14.464-19.81952-22.31296-27.02336z m-36.75136-31.2064H443.97056V432.82944h64.33792c15.06304 0 26.09152 3.0976 33.07008 9.28768 6.96832 6.19008 10.46528 14.09536 10.46528 23.71072a33.03936 33.03936 0 0 1-5.40672 18.23232c-3.6096 5.59104-8.87808 9.66144-15.81056 12.20096s-16.54272 3.8144-28.83584 3.8144zM778.69056 410.35776l-48.67072 141.43488c-4.89984 14.33088-8.50944 25.1904-10.81856 32.58368a1454.2848 1454.2848 0 0 0-9.7024-30.09024l-48.11776-143.9232h-40.47872v203.27936h25.92256V440.59136l58.78272 173.04064h24.2688l59.06432-170.13248v170.13248h25.92256V410.35776h-36.1728z" fill="#4E8CEE" p-id="1407"></path></svg>