<?xml version="1.0" standalone="no"?><!DOCTYPE svg PUBLIC "-//W3C//DTD SVG 1.1//EN" "http://www.w3.org/Graphics/SVG/1.1/DTD/svg11.dtd"><svg class="icon" width="200px" height="200.00px" viewBox="0 0 1024 1024" version="1.1" xmlns="http://www.w3.org/2000/svg"><path fill="#2c2c2c" d="M649.824 604.576a31.968 31.968 0 1 1-45.248 45.248L505.6 550.848l-98.976 98.976a31.904 31.904 0 0 1-45.248 0 32 32 0 0 1 0-45.248l98.976-98.976-98.976-98.976a32 32 0 0 1 45.248-45.248l98.976 98.976 98.976-98.976a32 32 0 0 1 45.248 45.248L550.848 505.6l98.976 98.976zM512 128C300.288 128 128 300.288 128 512c0 211.744 172.288 384 384 384 211.744 0 384-172.256 384-384 0-211.712-172.256-384-384-384z" /></svg>