<?xml version="1.0" standalone="no"?><!DOCTYPE svg PUBLIC "-//W3C//DTD SVG 1.1//EN" "http://www.w3.org/Graphics/SVG/1.1/DTD/svg11.dtd"><svg class="icon" width="200px" height="200.00px" viewBox="0 0 1024 1024" version="1.1" xmlns="http://www.w3.org/2000/svg"><path fill="#2c2c2c" d="M597.696 426.944c-0.032 1.28-0.896 8.128-9.344 41.952l-22.304 84.384c-7.136 24.96-22.624 47.68-46.144 67.52-24.992 21.44-50.336 32.32-75.36 32.32-21.952 0-38.848-7.584-51.872-23.456-12.32-14.016-18.592-34.432-18.592-60.672 0-61.12 17.44-112.704 51.776-153.184l0.16-0.192c31.776-39.104 67.712-58.08 109.952-58.08 19.616 0 34.4 7.616 45.536 23.776 10.88 14.304 16.192 29.28 16.192 45.632m277.696 248.416a11.2 11.2 0 0 0-9.76-5.728h-53.504a11.2 11.2 0 0 0-9.12 4.704c-27.36 38.56-64.32 70.112-109.664 93.76-52.608 26.272-114.72 39.616-184.64 39.616-91.264 0-165.888-26.464-221.76-78.56-56.384-53.952-84.992-129.76-84.992-225.28 0-89.184 29.632-163.712 88.192-221.632 57.824-58.464 131.68-88.064 219.52-88.064 82.208 0 149.312 24.448 199.264 72.544C755.776 313.6 779.52 372.416 779.52 441.6c0 58.72-17.856 111.04-52.896 155.328-30.08 36.64-59.52 55.2-87.616 55.2-17.472 0-18.944-7.136-18.944-15.04 0-14.304 3.424-31.776 10.336-52.576L700.448 320a11.2 11.2 0 0 0-10.816-14.048h-48.64a11.2 11.2 0 0 0-10.784 8.16l-7.744 27.296c-19.584-35.808-50.88-53.92-93.312-53.92-60.896 0-114.496 27.2-159.136 80.64-47.04 53.696-70.848 120.96-70.848 199.904 0 43.52 13.088 80.064 38.72 108.512 25.504 28.992 60.384 43.712 103.776 43.712 45.504 0 86.176-18.464 121.152-54.912 11.648 43.072 44.128 52.928 71.36 52.928 51.296 0 99.712-27.52 144.064-82.144 44.768-58.144 67.456-123.584 67.456-194.528 0-88.864-29.216-163.168-86.88-220.8C697.92 159.168 615.04 128 512.64 128c-110.88 0-203.84 37.12-276.256 110.176C164.48 308.8 128 397.536 128 501.92c0 110.88 35.52 201.6 105.6 269.696 69.92 66.56 162.464 100.32 275.136 100.32 79.872 0 153.216-16.768 218.016-49.824 63.2-31.936 113.12-77.504 148.416-135.456a11.168 11.168 0 0 0 0.224-11.296" /></svg>