<?xml version="1.0" standalone="no"?><!DOCTYPE svg PUBLIC "-//W3C//DTD SVG 1.1//EN" "http://www.w3.org/Graphics/SVG/1.1/DTD/svg11.dtd"><svg class="icon" width="200px" height="200.00px" viewBox="0 0 1024 1024" version="1.1" xmlns="http://www.w3.org/2000/svg"><path fill="#2c2c2c" d="M181.067741 586.712636h35.587727a56.884319 56.884319 0 0 1 39.85772 16.292694l45.622212 44.808244a28.435488 28.435488 0 0 0 45.368681-7.699332l74.724886-151.224488a22.751059 22.751059 0 0 1 41.365562 1.240967l85.479932 202.958128a56.884319 56.884319 0 0 0 101.946094 5.897928l55.283072-97.836225a28.435488 28.435488 0 0 1 24.765962-14.451259h121.42794a38.276488 38.276488 0 1 0 0-76.552977H699.885293a28.435488 28.435488 0 0 0-24.859369 14.678102l-46.609647 83.865341a22.751059 22.751059 0 0 1-41.031969-2.668746l-92.445359-233.141644a56.884319 56.884319 0 0 0-105.08187-1.601247l-68.853645 159.297444a22.751059 22.751059 0 0 1-36.7086 7.325707l-12.142794-11.742482a56.884319 56.884319 0 0 0-39.550815-16.012475h-52.600982a37.749411 37.749411 0 0 0-37.736068 37.776098v0.520406a38.803566 38.803566 0 0 0 38.803566 38.269816z m-120.093567-364.670787L459.191098 13.025668a113.768639 113.768639 0 0 1 105.922526 0.10675l398.096829 209.97693a113.768639 113.768639 0 0 1 60.700626 100.625065v374.118147a113.768639 113.768639 0 0 1-60.206908 100.371535L565.714091 1010.602895a113.768639 113.768639 0 0 1-107.08343 0L60.280301 798.210751A113.768639 113.768639 0 0 1 0.046705 697.825873V322.773664a113.768639 113.768639 0 0 1 60.900782-100.731815z" /></svg>