<?xml version="1.0" standalone="no"?><!DOCTYPE svg PUBLIC "-//W3C//DTD SVG 1.1//EN" "http://www.w3.org/Graphics/SVG/1.1/DTD/svg11.dtd"><svg class="icon" width="200px" height="200.00px" viewBox="0 0 1024 1024" version="1.1" xmlns="http://www.w3.org/2000/svg"><path fill="#2c2c2c" d="M629.856 550.976l-160 149.76a31.904 31.904 0 0 1-45.216-1.504 31.936 31.936 0 0 1 1.504-45.216l134.496-125.888-134.016-120.32a32 32 0 1 1 42.752-47.616l160 143.616a31.904 31.904 0 0 1 0.48 47.168M512 128C300.256 128 128 300.256 128 512c0 211.712 172.256 384 384 384s384-172.288 384-384c0-211.744-172.256-384-384-384" /></svg>