<?xml version="1.0" standalone="no"?><!DOCTYPE svg PUBLIC "-//W3C//DTD SVG 1.1//EN" "http://www.w3.org/Graphics/SVG/1.1/DTD/svg11.dtd"><svg class="icon" width="200px" height="200.00px" viewBox="0 0 1024 1024" version="1.1" xmlns="http://www.w3.org/2000/svg"><path fill="#2c2c2c" d="M831.904 768L192 768.224 192.096 256 832 255.808l0.224 512.16-0.32 0.032m0-576H192.096A64 64 0 0 0 128 255.808v512.416A64 64 0 0 0 192.096 832h639.808A64.032 64.032 0 0 0 896 768.224V255.808A64.032 64.032 0 0 0 831.904 192M288 576h128a32 32 0 1 0 0-64H288a32 32 0 1 0 0 64M544 640H288a32 32 0 1 0 0 64h256a32 32 0 1 0 0-64M512 320v256h256v-256h-256z m192 192h-128v-128h128v128z" /></svg>