<?xml version="1.0" standalone="no"?><!DOCTYPE svg PUBLIC "-//W3C//DTD SVG 1.1//EN" "http://www.w3.org/Graphics/SVG/1.1/DTD/svg11.dtd"><svg class="icon" width="200px" height="200.00px" viewBox="0 0 1024 1024" version="1.1" xmlns="http://www.w3.org/2000/svg"><path fill="#2c2c2c" d="M253.44 555.008c14.336-1.536 24.576-7.168 34.304-17.92 26.112-29.184 54.784-41.984 84.48-37.888 24.576 3.584 44.032 17.92 58.368 28.672 4.608 3.584 9.216 6.656 12.8 8.704 15.36 8.192 27.136 8.192 32.768 3.584 4.096-3.072 3.584-8.192 2.56-12.288-3.072-10.752-27.648-60.928-40.448-83.968-12.288-22.016-13.312-47.104-3.072-67.584 13.312-26.112 43.008-40.96 88.064-45.568h1.024c10.752-0.512 29.696-3.072 35.328-12.288 5.632-9.728 1.536-31.232-11.264-57.856-10.752-17.408-13.312-37.376-8.192-56.832 2.048-7.168 4.608-14.336 8.704-20.992-10.24-1.024-20.992-1.536-31.232-1.536-45.568 0-89.6 8.704-130.56 26.624-39.936 16.896-75.776 40.96-107.008 72.192-30.72 30.72-55.296 67.072-72.192 107.008-17.408 41.472-26.624 85.504-26.624 130.56 0 8.704 0.512 16.896 1.024 25.088 29.184 10.24 53.248 14.336 71.168 12.288zM755.712 698.88c-9.728 16.896-20.992 36.352-41.984 49.664-23.04 13.824-53.248 17.408-94.208 10.752-45.568-7.68-86.016 2.048-103.424 24.064-16.896 20.992-10.24 51.712-1.024 75.264h2.048c45.568 0 89.6-8.704 130.56-26.624 39.936-16.896 75.776-40.96 107.008-72.192 30.72-30.72 55.296-67.072 72.192-107.008 1.024-2.048 1.536-4.096 2.56-5.632-19.456 2.048-34.304 6.656-45.056 14.848-12.8 9.728-20.48 23.04-28.672 36.864zM826.88 386.56c-16.896-39.936-40.96-75.776-72.192-107.008-30.72-30.72-67.072-55.296-107.008-72.192-14.848-6.144-29.696-11.264-45.056-15.36-8.192 6.144-14.336 14.848-16.384 23.552-2.048 7.168-1.024 13.824 3.072 20.48l0.512 1.024 0.512 1.024c21.504 43.52 25.088 78.848 10.24 103.936-12.8 22.016-37.888 34.304-73.728 35.84-26.624 2.56-44.544 9.728-49.664 19.968-3.584 6.656-1.024 15.872 2.048 22.016 10.752 19.456 39.424 76.288 45.056 94.208 7.168 24.064 0 48.128-18.432 62.976-22.016 17.408-54.784 17.92-86.016 0.512-6.144-3.072-11.776-7.68-17.92-12.288-29.184-21.504-47.616-32.256-78.336 2.56-17.408 19.456-38.4 30.72-64 33.792-5.12 0.512-10.24 1.024-15.872 1.024-15.872 0-33.792-2.56-53.248-8.192 4.096 17.92 9.728 35.328 17.408 52.736 16.896 39.936 40.96 75.776 72.192 107.008 30.72 30.72 67.072 55.296 107.008 72.192 24.576 10.752 50.688 17.92 76.8 22.016-4.096-15.36-6.144-29.696-5.632-43.52 1.024-22.016 7.68-40.96 20.48-57.344 14.848-18.944 37.888-32.768 66.048-39.936 25.088-6.144 53.76-6.656 82.944-2.048 28.672 4.608 49.152 3.072 61.44-4.096 10.752-6.656 17.408-17.92 25.6-32.256 17.92-31.744 43.008-74.752 130.56-76.288 5.632-24.576 8.704-50.176 8.704-76.288-1.024-45.056-9.728-89.088-27.136-130.048zM517.12 133.12c-211.968 0-384 172.032-384 384s172.032 384 384 384 384-172.032 384-384-172.032-384-384-384z m0 704c-176.64 0-320-143.36-320-320s143.36-320 320-320 320 143.36 320 320-143.36 320-320 320z" /></svg>