<?xml version="1.0" standalone="no"?><!DOCTYPE svg PUBLIC "-//W3C//DTD SVG 1.1//EN" "http://www.w3.org/Graphics/SVG/1.1/DTD/svg11.dtd"><svg class="icon" width="200px" height="200.00px" viewBox="0 0 1024 1024" version="1.1" xmlns="http://www.w3.org/2000/svg"><path fill="#2c2c2c" d="M224 352h64a32 32 0 0 0 0-64H224a32 32 0 0 0 0 64M224 544h64a32 32 0 0 0 0-64H224a32 32 0 0 0 0 64M384 352h64a32 32 0 0 0 0-64h-64a32 32 0 0 0 0 64M384 544h64a32 32 0 0 0 0-64h-64a32 32 0 0 0 0 64M544 352h64a32 32 0 0 0 0-64h-64a32 32 0 0 0 0 64M704 352h64a32 32 0 0 0 0-64h-64a32 32 0 0 0 0 64M544 544h64a32 32 0 0 0 0-64h-64a32 32 0 0 0 0 64M704 544h64a32 32 0 0 0 0-64h-64a32 32 0 0 0 0 64M779.776 672H224a32 32 0 0 0 0 64h555.776a32 32 0 0 0 0-64" /></svg>