<?xml version="1.0" standalone="no"?><!DOCTYPE svg PUBLIC "-//W3C//DTD SVG 1.1//EN" "http://www.w3.org/Graphics/SVG/1.1/DTD/svg11.dtd"><svg class="icon" width="200px" height="200.00px" viewBox="0 0 1024 1024" version="1.1" xmlns="http://www.w3.org/2000/svg"><path fill="#2c2c2c" d="M497.376 392.288c0-61.76 50.24-112 112-112s112 50.24 112 112-50.24 112-112 112-112-50.24-112-112m361.696-164.352c0-35.2-28.608-63.84-62.624-63.84h-0.064C795.296 164.064 684.704 160 601.28 160c-96.16 0-104.8 4.64-115.2 15.04l-148.704 148.704-190.72 190.72c-24.96 24.96-24.896 65.6 0.16 90.656l271.232 271.232c12.16 12.128 28.256 18.784 45.44 18.784 17.152 0 33.184-6.624 45.184-18.624l212.224-212.224 127.2-127.2c11.2-11.2 21.76-21.76 10.976-309.152" /></svg>