<?xml version="1.0" standalone="no"?><!DOCTYPE svg PUBLIC "-//W3C//DTD SVG 1.1//EN" "http://www.w3.org/Graphics/SVG/1.1/DTD/svg11.dtd"><svg class="icon" width="200px" height="200.00px" viewBox="0 0 1024 1024" version="1.1" xmlns="http://www.w3.org/2000/svg"><path fill="#2c2c2c" d="M480 618.784v-104.704l73.056 50.976L480 618.784z m146.304-80.672l-160-111.68a32 32 0 0 0-44.544 8 31.488 31.488 0 0 0-4.224 26.624c-0.64 2.528-1.536 4.96-1.536 7.68v192c0 3.936 0.928 7.68 2.272 11.2a31.36 31.36 0 0 0 3.936 29.088 32 32 0 0 0 44.768 6.784l160-117.696a32.032 32.032 0 0 0-0.672-52zM224 804.704v-480h576l0.256 480H224z m576.256-544h-188.8l40.096-87.36a32 32 0 1 0-58.208-26.688l-52.288 114.048H459.52l-52.32-114.048a32 32 0 1 0-58.176 26.688l40.064 87.36H223.744a63.936 63.936 0 0 0-63.744 64v480c0 35.296 28.608 64 63.744 64h576.512a63.936 63.936 0 0 0 63.744-64v-480c0-35.296-28.608-64-63.744-64z" /></svg>