<?xml version="1.0" standalone="no"?><!DOCTYPE svg PUBLIC "-//W3C//DTD SVG 1.1//EN" "http://www.w3.org/Graphics/SVG/1.1/DTD/svg11.dtd"><svg class="icon" width="200px" height="200.00px" viewBox="0 0 1024 1024" version="1.1" xmlns="http://www.w3.org/2000/svg"><path fill="#2c2c2c" d="M610.487082 415.752936c-1.584078-22.709211-10.369162-40.624233-25.959232-53.541427-10.763135-8.922207-29.367865-19.050891-59.012022-21.739117-0.057305-0.134053-0.138146-0.255827-0.198521-0.388857-4.40738-0.555655-8.858762-0.873903-13.31833-1.026376-4.457522 0.153496-8.909927 0.470721-13.316284 1.026376-0.060375 0.132006-0.141216 0.254803-0.198521 0.388857-29.643134 2.688225-48.248887 12.81691-59.012022 21.739117-15.59007 12.917194-24.375154 30.831192-25.959232 53.541427l-13.414521 192.369285c-2.022053 28.985148 5.139044 53.070706 21.559015 71.15355 5.255701 5.788843 12.467963 12.043291 22.059412 17.550725 9.083889 3.546779 14.625092 5.16565 14.625092 5.165649l0.01842-0.015349c14.272052 6.102998 32.534997 10.397814 55.725162 10.440793l0.886183-0.004093c47.432289-0.13917 73.818239-18.210757 87.370907-33.138748 16.419971-18.082844 23.580045-42.168402 21.559015-71.15355l-13.414521-192.368262zM827.7575 62.069661H196.241476c-72.754001 0-132.237767 59.482743-132.237767 132.236743v631.518071c0 72.751954 59.484789 132.237767 132.237767 132.237767h631.516024c72.754001 0 132.237767-59.485813 132.237767-132.237767V194.306404c0.001023-72.754001-59.483766-132.236743-132.237767-132.236743zM797.658995 401.169799c-13.528108 24.558325-53.559846 41.59842-67.061348 46.779419l8.28571 60.032259c0.027629-0.382717 0.067538-0.757247 0.094144-1.140987l1.333368 11.483542 7.351432 53.262065c9.334599 67.62519-3.906983 125.243469-40.923038 169.115675-0.176009 0.212848-0.364297 0.415462-0.541329 0.624217-1.622964 1.906419-3.222391 3.826142-4.937453 5.679349-0.435928 0.472767-0.907673 0.905626-1.34974 1.374301-0.309038 0.330528-0.586354 0.680499-0.898463 1.00898-0.89744 0.943488-1.859347 1.810229-2.775207 2.73325-1.396813 1.399883-2.788509 2.806929-4.226254 4.15974-1.325182 1.245364-2.690272 2.446725-4.05127 3.651157a188.972932 188.972932 0 0 1-5.133927 4.424776c-0.776689 0.635473-1.569752 1.25355-2.358721 1.876743-40.35408 32.206516-94.856391 48.440246-164.896584 48.440246-1.14201 0-2.236947-0.051165-3.37077-0.059352-1.26583 0.010233-2.495844 0.059352-3.768837 0.059352-82.858126 0-144.053883-22.626323-185.692213-67.668169-41.225937-44.588521-56.186673-104.522542-46.401819-175.419242l7.352455-53.262064 1.333368-11.483543c0.025583 0.38067 0.067538 0.751107 0.095167 1.130754l8.284687-60.022025c-13.502525-5.180999-53.534264-22.222117-67.061348-46.77942-16.370853-29.716812 8.092305-36.285414 8.092305-36.285414l39.706327-9.705036s11.219529-4.548596 27.246551-11.264555a170.181961 170.181961 0 0 1-7.261381-13.932314c-6.592139-14.163581-6.258541-15.792685-10.513448-31.638581-1.614777-13.083993-4.095271-26.055422-2.833534-39.800471 1.000793-10.898211 4.816702-24.799826 10.172687-32.115442 6.089695-8.319479 18.664082-8.488325 25.067931 6.128581 4.542456 10.368138 5.556553 22.287609 10.489912 32.636305 11.656481 24.445762 27.482935 30.830169 53.951773 41.405015 34.492582-19.216667 76.786851-28.428469 129.162732-28.42847 0.800225 0 1.581008 0.01842 2.376117 0.022513 0.796132-0.004093 1.576915-0.022513 2.37714-0.022513 53.190433 0 95.965655 9.523911 130.74988 29.355585 27.875884-11.343349 44.318368-20.057825 56.31254-45.212737 4.933359-10.348696 5.947456-22.268166 10.489912-32.636305 6.40385-14.616906 18.977213-14.44806 25.067931-6.128581 5.355985 7.315616 9.171893 21.217231 10.172687 32.115442 1.261737 13.746072-1.217734 26.716478-2.833534 39.800471-4.253884 15.845896-3.920286 17.475-10.512425 31.638581a223.606731 223.606731 0 0 1-9.166777 17.669428c14.922874 6.242168 25.204032 10.409071 25.204032 10.409071l39.706327 9.705036c0-0.002047 24.461111 6.566556 8.092305 36.283368z" /></svg>