<?xml version="1.0" standalone="no"?><!DOCTYPE svg PUBLIC "-//W3C//DTD SVG 1.1//EN" "http://www.w3.org/Graphics/SVG/1.1/DTD/svg11.dtd"><svg class="icon" width="200px" height="200.00px" viewBox="0 0 1024 1024" version="1.1" xmlns="http://www.w3.org/2000/svg"><path fill="#2c2c2c" d="M943.208952 266.080078l-59.612702-14.570857s-15.433504-6.255471-37.838794-15.626909c4.886287-8.450463 9.451256-17.257036 13.761422-26.527167 9.897418-21.263279 9.395998-23.708981 15.783475-47.498804 2.424212-19.643386 6.148024-39.116903 4.253884-59.752895-1.50119-16.361643-7.230682-37.232996-15.271822-48.215118-9.143241-12.490475-28.019147-12.743232-37.634132 9.200546-6.819313 15.565511-8.341992 33.460066-15.748682 48.995901-18.007119 37.765115-42.691311 50.849108-84.540442 67.877946-52.222385-29.773094-116.438942-44.071751-196.294688-44.071751-1.202385 0-2.37407 0.027629-3.569292 0.033769-1.192152-0.00614-2.364861-0.033769-3.567245-0.033769-78.631872 0-142.128021 13.829983-193.912432 42.679032-39.736003-15.875572-63.497173-25.459858-80.997755-62.160735-7.40669-15.535835-8.928347-33.431414-15.748683-48.995901-9.613962-21.943778-28.490891-21.691021-37.634132-9.200546-8.040117 10.982122-13.770632 31.853475-15.271822 48.215118-1.89414 20.635993 1.828648 40.10951 4.253884 59.752895 6.386454 23.789823 5.886057 26.235524 15.783475 47.498804a255.8112 255.8112 0 0 0 10.901281 20.917402c-24.062022 10.082636-40.905642 16.910135-40.905642 16.910135l-59.611679 14.570857s-36.725436 9.860579-12.148691 54.474682c20.309558 36.868699 80.409354 62.452377 100.679003 70.230528l-12.437263 90.11132c-0.041956-0.569982-0.105401-1.125637-0.143263-1.697664l-2.00261 17.239639-11.037381 79.96217c-14.690584 106.436124 7.769964 196.416462 69.662593 263.356036 62.512752 67.620074 154.383136 101.589746 278.779307 101.589746 1.911536 0 3.756557-0.073678 5.656837-0.089027 1.702782 0.01228 3.345188 0.089028 5.060249 0.089027 105.151875 0 186.976462-24.370037 247.559259-72.722278 1.184989-0.935302 2.376117-1.862417 3.541663-2.817162 2.618641-2.160199 5.169743-4.391007 7.707542-6.64228 2.043542-1.808182 4.093225-3.611248 6.081509-5.480828 2.159176-2.032286 4.248767-4.143367 6.344498-6.245238 1.375324-1.385557 2.819209-2.686179 4.166903-4.103458 0.468674-0.49221 0.88516-1.01819 1.349741-1.514493 0.663102-0.703011 1.370207-1.353834 2.026146-2.064009 2.573615-2.781346 4.976338-5.664 7.41283-8.526187 0.267083-0.315178 0.548492-0.6191 0.813529-0.937348 55.573713-65.865103 75.451436-152.3662 61.438281-253.892501l-11.036358-79.96217-2.00261-17.239639c-0.039909 0.576121-0.099261 1.137916-0.140193 1.713014l-12.440333-90.125647c20.270672-7.77815 80.370469-33.360805 100.680027-70.230527 24.573675-44.612057-12.148691-54.473659-12.148692-54.473659zM662.130276 738.075968c-20.34742 22.410406-59.959603 49.541323-131.171482 49.750078l-1.329275 0.00614c-34.81697-0.065492-62.235436-6.513344-83.660398-15.676028l-0.028653 0.023536s-8.319479-2.430352-21.956057-7.755638c-14.399965-8.268314-25.227568-17.658172-33.118282-26.349111-24.651446-27.14729-35.401278-63.306838-32.366152-106.822934l20.140713-288.804638c2.379187-34.094516 15.568581-60.988026 38.972616-80.380702 16.159028-13.394055 44.091194-28.600385 88.594781-32.636305 0.086981-0.200568 0.206708-0.38374 0.298805-0.582261 6.614651-0.833995 13.298887-1.311879 19.99131-1.542122 6.694469 0.230244 13.376659 0.708128 19.99438 1.542122 0.091074 0.198521 0.211824 0.381693 0.297782 0.582261 44.503587 4.03592 72.435753 19.243273 88.594781 32.636305 23.404036 19.392676 36.59343 46.287209 38.971593 80.380702l20.140713 288.804638c3.03308 43.516096-7.716752 79.676667-32.367175 106.823957z" /></svg>