<?xml version="1.0" standalone="no"?><!DOCTYPE svg PUBLIC "-//W3C//DTD SVG 1.1//EN" "http://www.w3.org/Graphics/SVG/1.1/DTD/svg11.dtd"><svg class="icon" width="200px" height="200.00px" viewBox="0 0 1024 1024" version="1.1" xmlns="http://www.w3.org/2000/svg"><path fill="#2c2c2c" d="M735.968 800L288 800.256V672h447.968v128zM288 223.744L288.032 224 736 223.744 735.968 608H288V223.744zM735.968 160H288.032A63.968 63.968 0 0 0 224 223.744v576.512C224 835.392 252.704 864 288.032 864h447.936A63.968 63.968 0 0 0 800 800.256V223.744A63.968 63.968 0 0 0 735.968 160zM480 768h64a32 32 0 0 0 0-64h-64a32 32 0 0 0 0 64" /></svg>