<?xml version="1.0" standalone="no"?><!DOCTYPE svg PUBLIC "-//W3C//DTD SVG 1.1//EN" "http://www.w3.org/Graphics/SVG/1.1/DTD/svg11.dtd"><svg class="icon" width="200px" height="200.00px" viewBox="0 0 1024 1024" version="1.1" xmlns="http://www.w3.org/2000/svg"><path fill="#2c2c2c" d="M736 608H288l0.032-384L736 223.744l0.096 384.288L736 608z m-192 160h-64a32 32 0 0 1 0-64h64a32 32 0 0 1 0 64z m191.968-608H288.032A64 64 0 0 0 224 223.744v576.512A64 64 0 0 0 288.032 864h447.936A64 64 0 0 0 800 800.256V223.744A64 64 0 0 0 735.968 160z" /></svg>