<?xml version="1.0" standalone="no"?><!DOCTYPE svg PUBLIC "-//W3C//DTD SVG 1.1//EN" "http://www.w3.org/Graphics/SVG/1.1/DTD/svg11.dtd"><svg class="icon" width="200px" height="200.00px" viewBox="0 0 1024 1024" version="1.1" xmlns="http://www.w3.org/2000/svg"><path fill="#2c2c2c" d="M448.544 496H256a32 32 0 0 0 0 64l146.976-0.192-233.6 233.568a32 32 0 0 0 45.248 45.248l233.664-233.632v147.264a32 32 0 1 0 64 0v-192.512a63.84 63.84 0 0 0-63.744-63.744M838.624 201.376a31.968 31.968 0 0 0-45.248 0L576 418.752V272a32 32 0 0 0-64 0v192.544c0 35.136 28.608 63.712 63.744 63.712h192.512a32 32 0 1 0 0-64l-147.488 0.224 217.856-217.856a31.968 31.968 0 0 0 0-45.248" /></svg>