<?xml version="1.0" standalone="no"?><!DOCTYPE svg PUBLIC "-//W3C//DTD SVG 1.1//EN" "http://www.w3.org/Graphics/SVG/1.1/DTD/svg11.dtd"><svg class="icon" width="200px" height="200.00px" viewBox="0 0 1024 1024" version="1.1" xmlns="http://www.w3.org/2000/svg"><path fill="#2c2c2c" d="M288.16 631.2c3.488-1.28 86.816-31.68 223.552-31.68 136.768 0 220.064 30.4 223.552 31.68a24 24 0 0 1-16.672 44.992c-0.768-0.32-79.456-28.64-206.88-28.64-128.192 0-206.08 28.352-206.848 28.64a24 24 0 0 1-16.704-44.992m-64.32-202.272l-10.912 75.712-0.128-1.44-1.76 14.496-9.696 67.168c-12.896 89.408 6.816 164.992 61.184 221.248 54.88 56.8 135.552 85.344 244.768 85.344 1.664 0 3.296-0.064 4.96-0.096 1.504 0 2.944 0.096 4.448 0.096 92.32 0 164.16-20.48 217.376-61.12l3.104-2.368a223.68 223.68 0 0 0 12.128-10.176c1.888-1.696 3.712-3.52 5.568-5.248 1.184-1.152 2.464-2.24 3.648-3.424l1.184-1.28c0.576-0.64 1.216-1.152 1.792-1.728 2.24-2.336 4.352-4.8 6.496-7.168 0.224-0.32 0.48-0.512 0.704-0.8 48.8-55.36 66.24-128 53.952-213.28l-9.696-67.2-1.76-14.464-0.128 1.44-10.912-75.712c17.792-6.528 70.56-28.032 88.416-59.008 21.568-37.472-10.688-45.76-10.688-45.76l-52.32-12.224s-9.312-3.616-23.616-9.312c10.24-20.704 16.32-44.8 14.176-77.696-3.968-69.568-41.184-87.936-61.184-31.904-6.56 18.24-16.896 35.04-29.12 50.464a133.888 133.888 0 0 1-16.864 18.4l-4.224 0.16-0.32-0.128c-48.704-31.904-110.304-47.104-189.28-47.104h-6.272c-78.08 0-139.072 14.848-187.52 45.984a139.712 139.712 0 0 1-11.84-13.696c-12.192-15.424-22.56-32.16-29.12-50.464-20-56.032-57.184-37.632-61.184 31.936-1.92 29.344 2.72 51.648 11.008 70.816-18.88 7.552-31.744 12.544-31.744 12.544l-52.352 12.224s-32.256 8.288-10.688 45.76c17.856 30.976 70.624 52.48 88.416 59.008" /></svg>