<?xml version="1.0" standalone="no"?><!DOCTYPE svg PUBLIC "-//W3C//DTD SVG 1.1//EN" "http://www.w3.org/Graphics/SVG/1.1/DTD/svg11.dtd"><svg class="icon" width="200px" height="200.00px" viewBox="0 0 1024 1024" version="1.1" xmlns="http://www.w3.org/2000/svg"><path fill="#2c2c2c" d="M416.096 160H223.904A64 64 0 0 0 160 223.904v192.192A64 64 0 0 0 223.904 480h192.192A64 64 0 0 0 480 416.096V223.904A64 64 0 0 0 416.096 160M416.096 544H223.904A64 64 0 0 0 160 607.904v192.192A64 64 0 0 0 223.904 864h192.192A64 64 0 0 0 480 800.096v-192.192A64 64 0 0 0 416.096 544M800.096 160h-192.192A64 64 0 0 0 544 223.904v192.192A64 64 0 0 0 607.904 480h192.192A64 64 0 0 0 864 416.096V223.904A64 64 0 0 0 800.096 160M704 608a32 32 0 0 0-32 32v192a32 32 0 1 0 64 0v-192a32 32 0 0 0-32-32M576 608a32 32 0 0 0-32 32v192a32 32 0 1 0 64 0v-192a32 32 0 0 0-32-32M832 544a32 32 0 0 0-32 32v256a32 32 0 1 0 64 0v-256a32 32 0 0 0-32-32" /></svg>