<?xml version="1.0" standalone="no"?><!DOCTYPE svg PUBLIC "-//W3C//DTD SVG 1.1//EN" "http://www.w3.org/Graphics/SVG/1.1/DTD/svg11.dtd"><svg class="icon" width="200px" height="200.00px" viewBox="0 0 1024 1024" version="1.1" xmlns="http://www.w3.org/2000/svg"><path fill="#2c2c2c" d="M659.104 622.176c-20.16 19.776-31.296 54.336-26.56 82.24l19.136 112.352-99.84-52.896h-0.032c-24.992-13.216-61.28-13.216-86.272 0l-99.84 52.928 19.104-112.416c4.768-27.84-6.4-62.4-26.56-82.208L277.056 542.4l112.064-16.416c27.904-4.096 57.216-25.504 69.696-50.944l49.888-101.888 49.92 101.888c12.448 25.408 41.76 46.848 69.664 50.944l112.096 16.416-81.28 79.808z m149.28-56.928c14.976-14.72 20.384-32.928 14.816-49.92-5.536-17.056-20.608-28.48-41.312-31.552l-144.32-21.12c-6.944-1.056-18.4-9.44-21.504-15.808l-64.576-131.84c-9.28-18.88-24.864-29.76-42.816-29.76-17.92 0-33.536 10.88-42.816 29.76l-64.544 131.84c-3.136 6.336-14.56 14.752-21.504 15.776l-144.32 21.12c-20.704 3.04-35.776 14.528-41.344 31.552-5.568 17.024-0.16 35.232 14.848 49.952l104.448 102.624c5.056 4.96 9.472 18.688 8.288 25.76l-24.672 144.896c-3.52 20.8 2.784 38.752 17.344 49.28 7.488 5.44 16.192 8.128 25.408 8.128 8.608 0 17.6-2.368 26.56-7.104l129.088-68.384c6.208-3.264 20.288-3.264 26.432 0l129.088 68.384c18.496 9.824 37.44 9.44 52-1.056 14.56-10.496 20.864-28.448 17.344-49.28l-24.672-144.896c-1.216-7.04 3.2-20.768 8.288-25.76l104.448-102.592zM301.216 401.344a32 32 0 0 0 32-32V200.672a32 32 0 0 0-64 0v168.672a32 32 0 0 0 32 32M429.216 305.344a32 32 0 0 0 32-32V200.672a32 32 0 0 0-64 0v72.672a32 32 0 0 0 32 32M589.216 305.344a32 32 0 0 0 32-32V200.672a32 32 0 0 0-64 0v72.672a32 32 0 0 0 32 32M717.216 392.672a32 32 0 0 0 32-32V192a32 32 0 0 0-64 0v168.672a32 32 0 0 0 32 32" /></svg>