<?xml version="1.0" standalone="no"?><!DOCTYPE svg PUBLIC "-//W3C//DTD SVG 1.1//EN" "http://www.w3.org/Graphics/SVG/1.1/DTD/svg11.dtd"><svg class="icon" width="200px" height="200.00px" viewBox="0 0 1024 1024" version="1.1" xmlns="http://www.w3.org/2000/svg"><path fill="#2c2c2c" d="M832 576a32 32 0 0 0-32 32l0.256 192L224 800.256 223.744 224H416a32 32 0 0 0 0-64H223.744A63.84 63.84 0 0 0 160 223.744v576.512C160 835.392 188.608 864 223.744 864h576.512A63.84 63.84 0 0 0 864 800.256V608a32 32 0 0 0-32-32M800.544 160H640a32 32 0 0 0 0 64l114.944-0.192-265.6 265.568a32 32 0 0 0 45.28 45.248l265.664-265.632v115.264a32 32 0 1 0 64 0V223.744A63.84 63.84 0 0 0 800.544 160" /></svg>