<?xml version="1.0" standalone="no"?><!DOCTYPE svg PUBLIC "-//W3C//DTD SVG 1.1//EN" "http://www.w3.org/Graphics/SVG/1.1/DTD/svg11.dtd"><svg class="icon" width="200px" height="200.00px" viewBox="0 0 1024 1024" version="1.1" xmlns="http://www.w3.org/2000/svg"><path fill="#2c2c2c" d="M672 501.44c0 88.192-71.776 160-160 160s-160-71.808-160-160c0-88.256 71.776-160 160-160s160 71.744 160 160m209.472-104.96a31.776 31.776 0 0 0-32.832-23.2 62.688 62.688 0 0 1-16.64-1.152 63.808 63.808 0 0 1-42.88-30.72 63.744 63.744 0 0 1 2.112-67.488 32 32 0 0 0-3.68-39.968c-19.584-20.16-41.632-37.248-64.832-52.544-35.808-23.616-74.976-41.92-116.864-52.448a31.968 31.968 0 0 0-36.48 16.832 63.68 63.68 0 0 1-57.28 35.616h-0.192a63.68 63.68 0 0 1-57.28-35.616 32 32 0 0 0-36.48-16.832c-41.92 10.56-81.056 28.832-116.864 52.48-23.2 15.264-45.248 32.352-64.832 52.512a32 32 0 0 0-3.712 40 63.68 63.68 0 0 1 2.112 67.456A63.392 63.392 0 0 1 192 372.032a62.816 62.816 0 0 1-16.672 1.28 31.52 31.52 0 0 0-32.8 23.168A383.136 383.136 0 0 0 128 501.44c0 35.616 4.864 70.912 14.528 104.864a31.904 31.904 0 0 0 32.8 23.2c5.664-0.32 11.264 0.224 16.672 1.312a63.776 63.776 0 0 1 40.736 98.048 32 32 0 0 0 3.712 40c19.584 20.16 41.632 37.248 64.8 52.544 35.84 23.68 74.976 41.92 116.896 52.416a31.936 31.936 0 0 0 36.48-16.832A63.648 63.648 0 0 1 512 821.44c24.512 0 46.496 13.632 57.376 35.584a32 32 0 0 0 36.48 16.832c41.92-10.496 81.056-28.768 116.864-52.416 23.2-15.296 45.248-32.384 64.832-52.576a32 32 0 0 0 3.68-39.968 63.68 63.68 0 0 1-2.112-67.456c9.408-16.32 24.992-27.2 42.88-30.72a65.28 65.28 0 0 1 16.64-1.184c15.04 0.896 28.704-8.736 32.832-23.2A384.64 384.64 0 0 0 896 501.44c0-35.648-4.896-70.944-14.528-104.928" /></svg>