<?xml version="1.0" standalone="no"?><!DOCTYPE svg PUBLIC "-//W3C//DTD SVG 1.1//EN" "http://www.w3.org/Graphics/SVG/1.1/DTD/svg11.dtd"><svg class="icon" width="200px" height="200.00px" viewBox="0 0 1024 1024" version="1.1" xmlns="http://www.w3.org/2000/svg"><path fill="#2c2c2c" d="M835.2512 504.79104c0-29.7472-14.8736-57.3696-38.95296-75.07456-9.91744-6.3744-22.66624-4.2496-29.7472 5.66784-6.3744 9.91744-4.2496 22.66624 5.66784 29.7472 12.7488 9.20576 21.248 24.07936 21.248 39.66464 0 15.58016-7.79264 30.45376-21.248 39.66464-9.91744 6.3744-12.04224 19.82976-5.66784 29.7472 4.2496 5.66784 10.624 9.20576 17.70496 9.20576 4.2496 0 8.4992-1.41824 12.04224-3.54304 24.07936-17.71008 38.95296-45.33248 38.95296-75.07968zM834.8672 358.17984c-9.91744-6.3744-22.66624-4.2496-29.7472 5.66784-6.3744 9.91744-4.2496 22.66624 5.66784 29.7472 36.82816 25.4976 58.07616 67.28704 58.07616 111.19616 0 44.6208-21.95456 86.41024-58.07616 111.19616-9.91744 6.3744-12.04224 19.82976-5.66784 29.7472 4.2496 5.66784 10.624 9.20576 17.70496 9.20576 4.2496 0 8.4992-1.41824 12.04224-3.54304 48.16384-33.9968 76.4928-88.53504 76.4928-146.6112s-28.32896-113.32096-76.4928-146.60608zM265.07776 468.66944c9.91744-6.3744 12.04224-19.82976 5.66784-29.7472-6.3744-9.91744-19.82976-12.04224-29.7472-5.66784-24.79104 17.70496-40.3712 46.03904-40.3712 76.4928s14.8736 59.4944 40.3712 76.4928c3.54304 2.83136 7.79264 3.54304 12.04224 3.54304 7.08096 0 13.45536-3.54304 17.70496-9.20576 6.3744-9.91744 4.2496-22.66624-5.66784-29.7472a50.71872 50.71872 0 0 1-21.95456-41.78944c0-15.58528 8.4992-31.16544 21.95456-40.3712zM221.16864 625.90464C182.92224 599.70048 160.256 556.4928 160.256 510.45888s22.66624-89.2416 60.91264-115.44576c9.91744-6.3744 12.04224-19.82976 5.66784-29.7472-6.3744-9.91744-19.82976-12.04224-29.7472-5.66784C147.5072 393.58976 117.76 450.2528 117.76 510.45376s29.7472 116.15744 78.6176 150.8608c3.54304 2.83136 7.79264 3.54304 12.04224 3.54304 7.08096 0 13.45536-3.54304 17.70496-9.20576 7.08096-9.91744 4.2496-23.3728-4.95616-29.7472zM631.76192 685.41952l-285.11744-51.87584 71.99744-395.5712 285.12768 51.712-71.94624 395.76576-0.06144-0.03072z m-141.84448 89.56928l-42.07104-7.6544a21.38112 21.38112 0 0 1 7.6544-42.07104l42.07104 7.6544a21.38112 21.38112 0 0 1-7.6544 42.07104z m227.32288-532.86912l-294.4512-53.57568a42.76224 42.76224 0 0 0-49.7152 34.24256L275.70688 757.91872a42.76224 42.76224 0 0 0 34.46784 49.5616l294.4512 53.57568a42.76224 42.76224 0 0 0 49.7152-34.24256L751.70816 291.6864a42.76736 42.76736 0 0 0-34.46784-49.56672z" /></svg>