<?xml version="1.0" standalone="no"?><!DOCTYPE svg PUBLIC "-//W3C//DTD SVG 1.1//EN" "http://www.w3.org/Graphics/SVG/1.1/DTD/svg11.dtd"><svg class="icon" width="200px" height="200.00px" viewBox="0 0 1024 1024" version="1.1" xmlns="http://www.w3.org/2000/svg"><path fill="#2c2c2c" d="M742.624 342.624l-169.76 169.76 67.424-0.128a32 32 0 0 1 0 64h-128.544A63.84 63.84 0 0 1 448 512.512V384a32 32 0 1 1 64 0v98.752l185.376-185.376a31.968 31.968 0 1 1 45.248 45.248zM352 736.256v63.808H224V672h128v64.256zM800.32 160H223.712A63.84 63.84 0 0 0 160 223.744V800.32C160 835.424 188.608 864 223.712 864H800.32A63.808 63.808 0 0 0 864 800.256V223.744A63.808 63.808 0 0 0 800.32 160z" /></svg>