<?xml version="1.0" standalone="no"?><!DOCTYPE svg PUBLIC "-//W3C//DTD SVG 1.1//EN" "http://www.w3.org/Graphics/SVG/1.1/DTD/svg11.dtd"><svg class="icon" width="200px" height="200.00px" viewBox="0 0 1024 1024" version="1.1" xmlns="http://www.w3.org/2000/svg"><path fill="#2c2c2c" d="M645.568 409.6h-256a32 32 0 0 1 0-64h256a32 32 0 1 1 0 64m0 128h-256a32 32 0 0 1 0-64h256a32 32 0 1 1 0 64m0 128h-256a32 32 0 0 1 0-64h256a32 32 0 1 1 0 64M512 128C300.288 128 128 300.256 128 512c0 211.712 172.288 384 384 384 211.744 0 384-172.288 384-384 0-211.744-172.256-384-384-384" /></svg>