<?xml version="1.0" standalone="no"?><!DOCTYPE svg PUBLIC "-//W3C//DTD SVG 1.1//EN" "http://www.w3.org/Graphics/SVG/1.1/DTD/svg11.dtd"><svg class="icon" width="200px" height="200.00px" viewBox="0 0 1024 1024" version="1.1" xmlns="http://www.w3.org/2000/svg"><path fill="#2c2c2c" d="M846.336 332.288s-6.144-7.68-8.192-9.216c-14.848-11.776-24.576-16.896-44.032-27.648l-7.168-4.096L686.08 235.52l-104.96-58.368c-19.968-10.752-43.52-17.408-69.12-17.408s-49.152 6.144-70.144 17.408L335.36 235.52 238.592 288.256 209.92 304.128c-14.336 7.68-25.6 18.944-33.792 32.256-9.728 14.336-15.872 31.232-15.872 49.664v245.76c0 34.304 19.968 64.512 49.152 80.896l29.696 15.872L462.336 849.92c14.336 7.68 31.232 12.288 49.664 12.288s35.328-4.608 50.176-12.8l224.256-121.856 27.648-14.848c29.696-16.384 49.664-46.592 49.664-81.408v-245.76c0-19.968-6.656-38.4-17.408-53.248z m-551.936-5.12l137.728-72.704 33.792-17.92c14.336-7.68 26.112-12.8 44.544-12.8s40.448 10.752 55.296 18.944l23.552 11.776 136.704 74.752c7.168 5.12 7.168 5.12 6.144 8.192l-220.16 113.664-225.792-115.712c-1.536-2.56 5.12-7.168 8.192-8.192z m167.424 449.024l-209.408-116.224-0.512-0.512c-18.432-11.264-29.696-20.992-29.696-43.52V385.024c0-1.024-1.024-6.656 0.512-11.264 0.512-0.512 1.024-1.024 2.048-0.512l25.6 13.312 66.56 35.328-0.512 90.624c0 6.144 3.584 11.776 8.704 14.848l40.448 21.504c6.656 3.584 14.336-1.024 14.336-8.704V453.632l98.304 50.688-0.512 280.064c-11.264-4.096-10.752-5.12-15.872-8.192zM798.72 372.224c5.632 2.048 3.584 4.608 3.584 12.8v231.424c0 23.552-9.728 33.28-27.648 44.032l-5.632 3.072-208.384 113.664c-5.12 3.072-3.584 3.072-14.336 8.192 0-71.168-0.512-215.04-0.512-280.064M219.136 370.176l304.128 157.696M182.784 323.584l-11.264 18.432c1.024-2.048 3.072-3.584 4.096-5.632l1.536-3.072 5.632-9.728z" /></svg>