<?xml version="1.0" standalone="no"?><!DOCTYPE svg PUBLIC "-//W3C//DTD SVG 1.1//EN" "http://www.w3.org/Graphics/SVG/1.1/DTD/svg11.dtd"><svg class="icon" width="200px" height="200.00px" viewBox="0 0 1024 1024" version="1.1" xmlns="http://www.w3.org/2000/svg"><path fill="#2c2c2c" d="M512 320c23.616 0 44.032-12.96 55.136-32 5.472-9.44 8.864-20.288 8.864-32a64 64 0 1 0-128 0c0 11.712 3.392 22.56 8.864 32 11.104 19.04 31.52 32 55.136 32M512 448c-23.616 0-44.032 12.96-55.136 32A63.584 63.584 0 0 0 448 512c0 11.712 3.392 22.56 8.864 32 11.104 19.04 31.52 32 55.136 32 23.616 0 44.032-12.96 55.136-32 5.472-9.44 8.864-20.288 8.864-32s-3.392-22.56-8.864-32c-11.104-19.04-31.52-32-55.136-32M512 704c-23.616 0-44.032 12.96-55.136 32A63.584 63.584 0 0 0 448 768a64 64 0 1 0 128 0c0-11.712-3.392-22.56-8.864-32-11.104-19.04-31.52-32-55.136-32" /></svg>