<?xml version="1.0" standalone="no"?><!DOCTYPE svg PUBLIC "-//W3C//DTD SVG 1.1//EN" "http://www.w3.org/Graphics/SVG/1.1/DTD/svg11.dtd"><svg class="icon" width="200px" height="200.00px" viewBox="0 0 1024 1024" version="1.1" xmlns="http://www.w3.org/2000/svg"><path fill="#2c2c2c" d="M732.16 450.048h-12.288V377.856c0-37.888-31.744-69.12-70.656-69.12h-73.216c1.024-7.168 1.024-14.848 1.024-22.016 0-75.776-62.976-137.728-140.288-137.728S296.448 210.944 296.448 286.72c0 7.168 0 14.848 1.024 22.016H224.256c-38.912 0-70.656 31.232-70.656 69.12v102.4c0 9.216 3.584 15.872 10.752 21.504 7.168 5.632 14.848 7.168 23.552 5.632 7.68-1.536 16.384-3.072 22.528-3.072 46.08 0 84.992 38.4 84.992 83.456 0 46.08-37.888 83.456-84.992 83.456-6.656 0-14.848-1.536-22.528-3.072-7.68-2.048-16.896 0.512-23.552 5.632-7.168 5.12-10.752 12.288-10.752 21.504v102.4c0 37.888 31.744 69.12 70.656 69.12H650.24c19.456 0 38.4-8.192 51.712-22.016 12.288-13.312 18.432-29.696 17.92-47.104v-72.192h12.288c77.312 0 140.288-61.952 140.288-137.728 0-75.776-62.976-137.728-140.288-137.728z m-66.048 239.616v105.984c0 8.192-7.168 15.36-15.872 15.36H224.768c-8.704 0-15.872-6.656-15.872-15.36v-70.656c0.512 0 1.536 0 2.048-0.512 77.312-0.512 139.776-61.952 139.776-137.728 0-37.376-14.848-72.704-41.984-98.816-27.136-26.112-62.976-39.936-100.352-38.912V378.368c0-8.192 7.168-15.36 15.872-15.36h110.08c8.704 0 17.92-4.608 23.552-12.288 4.608-6.656 5.632-15.36 2.048-25.088-5.12-11.264-8.192-24.064-8.192-36.352 0-46.08 37.888-83.456 84.992-83.456 46.08 0 84.992 38.4 84.992 83.456 0 10.752-1.024 23.04-7.68 35.84-4.608 7.68-3.584 18.432 1.536 25.6 5.12 6.144 13.824 12.288 23.552 12.288H650.24c8.704 0 15.872 6.656 15.872 15.36v107.52c0 9.216 3.584 15.872 10.752 21.504 7.68 5.632 16.896 6.656 25.6 3.072 8.192-4.096 17.408-6.144 28.672-6.144 46.08 0 84.992 38.4 84.992 83.456 0 46.08-37.888 83.456-84.992 83.456-8.192 0-17.408-3.072-26.112-5.632l-3.072-1.024c-10.24-2.56-18.432-1.536-25.088 3.584-6.656 3.072-10.752 11.264-10.752 21.504z" /></svg>