<?xml version="1.0" standalone="no"?><!DOCTYPE svg PUBLIC "-//W3C//DTD SVG 1.1//EN" "http://www.w3.org/Graphics/SVG/1.1/DTD/svg11.dtd"><svg class="icon" width="200px" height="200.00px" viewBox="0 0 1024 1024" version="1.1" xmlns="http://www.w3.org/2000/svg"><path fill="#2c2c2c" d="M541.32224 575.4624V513.7408h92.68224c15.58016 0 28.20608-12.08832 28.20608-27.00288s-12.63104-27.00288-28.20608-27.00288h-81.00864l0.21504-0.19968 80.59392-77.14816c11.01824-10.5472 11.01824-27.64288 0-38.19008s-28.8768-10.5472-39.88992 0l-80.59392 77.15328-0.2048 0.19456-0.2048-0.19456-80.59392-77.1584c-11.01824-10.5472-28.8768-10.5472-39.89504 0s-11.01824 27.64288 0 38.19008l80.59392 77.14816 0.21504 0.19968H392.22272c-15.58016 0-28.20608 12.08832-28.20608 27.00288s12.63104 27.00288 28.20608 27.00288h92.68224v61.7216H392.22272c-15.58016 0-28.20608 12.08832-28.20608 27.00288s12.63104 27.00288 28.20608 27.00288h92.68224v23.13728c0 14.91456 12.63104 27.00288 28.20608 27.00288s28.20608-12.08832 28.20608-27.00288v-23.13728h92.68224c15.58016 0 28.20608-12.08832 28.20608-27.00288s-12.63104-27.00288-28.20608-27.00288h-92.67712zM284.80512 234.0352L442.4192 177.77152c38.37952-13.70112 100.736-13.71648 139.1616 0l157.61408 56.26368c38.37952 13.70112 69.5808 58.13248 69.5808 99.2v232.82688c0 182.46144-296.77568 290.44736-296.77568 290.44736s-296.77568-107.98592-296.77568-290.44736V333.2352c0-41.48736 31.15008-85.48352 69.5808-99.2z" /></svg>