<?xml version="1.0" standalone="no"?><!DOCTYPE svg PUBLIC "-//W3C//DTD SVG 1.1//EN" "http://www.w3.org/Graphics/SVG/1.1/DTD/svg11.dtd"><svg class="icon" width="200px" height="200.00px" viewBox="0 0 1024 1024" version="1.1" xmlns="http://www.w3.org/2000/svg"><path fill="#2c2c2c" d="M347.35616 123.97568s31.84128 51.9424 37.83168 110.3616c-143.40608 46.24896-246.3744 172.64128-246.3744 321.56672 0 187.97056 164.20864 340.40832 366.73536 340.40832 202.5216 0 366.6688-152.43776 366.6688-340.40832 0-176.03072-143.80032-320.70144-328.2176-338.53952-69.28896-52.85888-196.64384-93.3888-196.64384-93.3888z m193.98144 454.09792c-24.93952 0-46.52032 1.16224-68.82304 1.47968 22.2976-53.94944 6.99904-119.39328-22.10816-137.15456 26.30144-9.23136 39.296-15.52896 67.97824-23.4752 41.8304 36.57728 41.18016 127.50336 22.95296 159.15008z m192.67584-22.7584c-25.06752 0-41.41056 1.46432-68.82304 1.46432 30.11584-58.22464 11.63264-116.55168-22.23616-137.15456 25.85088-10.91072 39.39328-15.5136 67.97312-23.47008 45.5424 38.91712 41.25184 127.51872 23.08608 159.16032z" /></svg>