<?xml version="1.0" standalone="no"?><!DOCTYPE svg PUBLIC "-//W3C//DTD SVG 1.1//EN" "http://www.w3.org/Graphics/SVG/1.1/DTD/svg11.dtd"><svg t="1539090630020" class="icon" style="" viewBox="0 0 1024 1024" version="1.1" xmlns="http://www.w3.org/2000/svg" p-id="1904" xmlns:xlink="http://www.w3.org/1999/xlink" width="200" height="200"><defs><style type="text/css"></style></defs><path d="M844.8 861.44c0 28.27264-69.0176 57.6-97.29536 57.6H276.49024c-28.27776 0-97.29024-33.16736-97.29024-61.44l-46.06976-230.4c0-28.27264 2.44224-51.2 30.72-51.2h696.2944c28.27264 0 30.72 22.92736 30.72 51.2L844.8 861.44zM316.58496 277.33504h390.82496s9.43616-120.4224-39.25504-172.37504c-35.84-38.24128-293.54496-10.24-293.54496-10.24S296.10496 164.69504 316.58496 277.33504z" fill="#BAD4FF" p-id="1905"></path><path d="M464.87552 724.92032l-174.99136-149.96992-36.54144 42.624 218.21952 191.13984 299.08992-362.9824-43.17184-35.97824-262.6048 315.16672z" fill="#4E8CEE" p-id="1906"></path><path d="M719.42144 151.66976c-14.9504-44.40576-42.7776-84.95104-95.06816-84.95104H399.6672c-52.30592 0-80.13312 40.54528-95.08352 84.95104-103.51616 7.02464-181.68832 94.67904-181.68832 206.7968v391.3216c0 116.67968 84.93056 207.488 194.37056 207.488h389.47328c109.43488 0 194.37056-90.80832 194.37056-207.488v-391.3216c-0.00512-112.11776-78.17728-199.77216-181.68832-206.7968zM395.5712 114.7136h232.86784c42.22976 0 56.06912 102.76864 56.1664 148.608H339.38944c0.09728-45.83936 13.94176-148.608 56.18176-148.608z m457.5488 635.07456c0 85.68832-67.9168 159.50848-146.38592 159.50848H317.2608c-78.46912 0-146.37568-73.82016-146.37568-159.50848v-391.3216c0-75.97056 58.3936-139.27936 124.46208-152.6784-3.61472 26.15296-3.93216 51.33312-3.93216 57.53856H259.2256v47.98976h505.54368v-47.98976h-32.16896c0-6.20544-0.32768-31.3856-3.93728-57.53856 66.05312 13.40416 124.45696 76.70784 124.45696 152.6784v391.3216z" fill="#4E8CEE" p-id="1907"></path></svg>