<?xml version="1.0" standalone="no"?><!DOCTYPE svg PUBLIC "-//W3C//DTD SVG 1.1//EN" "http://www.w3.org/Graphics/SVG/1.1/DTD/svg11.dtd"><svg t="1539090624023" class="icon" style="" viewBox="0 0 1024 1024" version="1.1" xmlns="http://www.w3.org/2000/svg" p-id="1780" xmlns:xlink="http://www.w3.org/1999/xlink" width="200" height="200"><defs><style type="text/css"></style></defs><path d="M188.58496 133.97504h457.38496v757.76H188.58496z" fill="#BAD4FF" p-id="1781"></path><path d="M440.4992 261.76h145.1264V313.088H440.4992V261.76zM440.4992 441.728h145.1264v52.3776H440.4992v-52.3776zM744.81152 618.2656h46.40768V763.392h-46.40768v-145.1264zM744.81152 422.8608h46.40768v145.13152h-46.40768V422.8608zM245.0944 618.2656h145.152v51.32288H245.0944v-51.32288z" fill="#4E8CEE" p-id="1782"></path><path d="M910.976 878.1312V261.76H682.2912V97.536H146.3552v780.5952H50.7136v48.44032h924.672v-48.44032h-64.4096z m-49.5104-570.0096v570.0096H682.2912V308.1216h179.1744z m-225.536-162.1504v732.16H195.84v-732.16h440.0896z" fill="#4E8CEE" p-id="1783"></path><path d="M245.0944 441.728h145.152v52.3776H245.0944v-52.3776zM440.4992 618.2656h145.1264v51.32288H440.4992v-51.32288zM245.0944 261.76h145.152V313.088H245.0944V261.76z" fill="#4E8CEE" p-id="1784"></path></svg>