<?xml version="1.0" standalone="no"?><!DOCTYPE svg PUBLIC "-//W3C//DTD SVG 1.1//EN" "http://www.w3.org/Graphics/SVG/1.1/DTD/svg11.dtd"><svg t="1539090647297" class="icon" style="" viewBox="0 0 1024 1024" version="1.1" xmlns="http://www.w3.org/2000/svg" p-id="2520" xmlns:xlink="http://www.w3.org/1999/xlink" width="200" height="200"><defs><style type="text/css"></style></defs><path d="M433.62304 544.4096c-127.47776 0-231.18848-103.71584-231.18848-231.1936s103.71072-231.18848 231.18848-231.18848 231.1936 103.71072 231.1936 231.18848c0 127.47776-103.71584 231.1936-231.1936 231.1936z m0-413.94688c-100.77184 0-182.75328 81.98144-182.75328 182.75328 0 100.77184 81.98144 182.7584 182.75328 182.7584 100.77184 0 182.75328-81.98656 182.75328-182.7584s-81.98144-182.75328-182.75328-182.75328z" fill="#4E8CEE" p-id="2521"></path><path d="M654.72 533.91872a24.2176 24.2176 0 0 1-5.46304-47.81568c83.13344-19.31264 141.19424-92.51328 141.19424-178.01216 0-105.34912-75.776-187.87328-172.51328-187.87328a24.2176 24.2176 0 0 1 0-48.4352c123.89888 0 220.9536 103.79776 220.9536 236.30848 0 108.14976-73.47712 200.75008-178.67264 225.18784-1.8432 0.4352-3.6864 0.64-5.49888 0.64z" fill="#4E8CEE" p-id="2522"></path><path d="M432.79872 528.64c-177.52576 0-321.43872 143.90784-321.43872 321.43872 0 2.05824 0.06144 6.18496 0.06144 6.18496S166.4 915.6608 467.20512 914.2784c196.87424 0.0256 287.03744-64.19968 287.03744-64.19968 0-177.53088-143.91296-321.43872-321.44384-321.43872z" fill="#BAD4FF" p-id="2523"></path><path d="M456.93952 938.5216c-293.85216 0-357.0432-59.06432-363.28448-65.80224a24.19712 24.19712 0 0 1-6.44608-16.09216s-0.06656-4.37248-0.06656-6.54848c0-190.59712 155.0592-345.65632 345.65632-345.65632s345.66144 155.06432 345.66144 345.65632c0 7.82848-3.7888 15.1808-10.16832 19.72736-3.93728 2.80576-98.76992 68.69504-300.96384 68.69504h-0.00512l-10.38336 0.02048z m-321.29536-94.72c22.19008 12.67712 101.76 46.2848 321.29536 46.2848l10.15296-0.02048c148.93568 0 234.35776-38.21056 262.62016-53.53472-7.10656-157.62432-137.56928-283.66848-296.91904-283.66848-161.78176-0.00512-293.79584 129.93536-297.14944 290.93888zM928.32256 858.94144a24.2176 24.2176 0 0 1-24.2176-24.2176c0-165.87776-147.72736-281.216-249.83552-297.5232a24.2176 24.2176 0 0 1-20.096-27.73504 24.2432 24.2432 0 0 1 27.73504-20.096c118.784 18.97472 290.6368 152.87296 290.6368 345.35424a24.22784 24.22784 0 0 1-24.22272 24.2176z" fill="#4E8CEE" p-id="2524"></path></svg>