<?xml version="1.0" standalone="no"?><!DOCTYPE svg PUBLIC "-//W3C//DTD SVG 1.1//EN" "http://www.w3.org/Graphics/SVG/1.1/DTD/svg11.dtd"><svg t="1539090585173" class="icon" style="" viewBox="0 0 1024 1024" version="1.1" xmlns="http://www.w3.org/2000/svg" p-id="1035" xmlns:xlink="http://www.w3.org/1999/xlink" width="200" height="200"><defs><style type="text/css"></style></defs><path d="M110.935 144.339v482.069s10.56 224.261 407.011 332.928c0 0 325.801-71.904 392.323-326.419 0.091-0.523 0-488.583 0-488.583l-391.071-79.671-408.265 79.675z" fill="#BAD4FF" p-id="1036"></path><path d="M517.357 982.717l-5.409-1.488c-407.664-111.744-423.226-343.925-423.686-353.755l-0.025-1.071v-500.765l431.059-84.125 413.683 84.278 0.005 18.543c0.091 489.969 0.091 489.969-0.322 492.379l-0.417 1.949c-28.809 110.213-109.056 204.533-232.066 272.765-91.603 50.807-173.881 69.317-177.331 70.085l-5.491 1.205zM133.639 625.654c0.384 4.431 5.712 54.729 52.56 115.829 45.341 59.136 139.699 140.587 332.103 194.395 41.155-10.541 310.089-87.403 369.278-305.966 0.052-30.499 0.019-305.040-0.009-467.026l-368.468-75.072-385.465 75.226v462.614z" fill="#4E8CEE" p-id="1037"></path><path d="M173.6 183.699l337.027-66.605v354.129h-337.027zM513.028 471.223h337.373v161.577s-16.809 179.995-337.123 268.637l-0.249-430.214z" fill="#FFFFFF" p-id="1038"></path></svg>