<?xml version="1.0" standalone="no"?><!DOCTYPE svg PUBLIC "-//W3C//DTD SVG 1.1//EN" "http://www.w3.org/Graphics/SVG/1.1/DTD/svg11.dtd"><svg t="1539090634219" class="icon" style="" viewBox="0 0 1024 1024" version="1.1" xmlns="http://www.w3.org/2000/svg" p-id="2027" xmlns:xlink="http://www.w3.org/1999/xlink" width="200" height="200"><defs><style type="text/css"></style></defs><path d="M444.16 889.4976H166.83008c-41.53344 0-60.0576-18.52416-60.0576-60.0576V122.38848c0-41.53344 18.52416-60.0576 60.0576-60.0576h571.29984c41.53344 0 60.0576 18.52416 60.0576 60.0576V485.12l-48.44032-25.6V122.38848c0-5.79072-0.38912-9.10336-0.73216-10.89024-1.78688-0.33792-5.09952-0.73216-10.89024-0.73216H166.83008c-5.79072 0-9.10336 0.38912-10.89024 0.73216-0.33792 1.792-0.73216 5.09952-0.73216 10.89024V829.44c0 5.79072 0.38912 9.10336 0.73216 10.89024 1.792 0.33792 5.09952 0.73216 10.89024 0.73216H444.16v48.4352z" fill="#4E8CEE" p-id="2028"></path><path d="M664.62208 211.23072H239.3856c-10.29632 0-18.65728 10.40384-18.65728 20.70016s8.36096 20.70016 18.65728 20.70016h425.26208c10.30144 0 18.65728-10.40384 18.65728-20.70016s-8.38656-20.70016-18.68288-20.70016zM683.27936 365.64992c0-10.29632-8.36096-20.70016-18.6624-20.70016H239.3856c-10.29632 0-18.65728 10.40896-18.65728 20.70016 0 10.30144 8.36096 20.70528 18.65728 20.70528h425.26208c10.27072 0 18.63168-10.40384 18.63168-20.70528zM239.36 478.66368c-10.30144 0-18.65728 10.40384-18.65728 20.70528 0 10.30144 8.35584 20.70016 18.65728 20.70016h272.90624c10.30656 0 18.65728-10.40384 18.65728-20.70016 0-10.30144-8.35072-20.70528-18.65728-20.70528H239.36zM453.15584 612.3776H239.36c-10.30144 0-18.65728 10.40384-18.65728 20.70016 0 10.30144 8.35584 20.7104 18.65728 20.7104h213.79584c10.30144 0 18.65728-10.40896 18.65728-20.7104 0-10.2912-8.35072-20.70016-18.65728-20.70016z" fill="#4E8CEE" p-id="2029"></path><path d="M870.38464 804.8896h-47.7696l-93.21472-130.43712c38.35904-13.51168 66.06848-49.72544 66.06848-92.6464 0-54.37952-44.20096-98.6112-98.5856-98.6112s-98.59584 44.23168-98.59584 98.6112c0 42.92096 27.74016 79.13472 66.07872 92.6464l-93.24032 130.43712h-47.73888c-24.00768 0-43.53536 19.52256-43.53536 43.53536v70.12352c0 24.00768 19.52768 43.5456 43.53536 43.5456h346.96192c24.00768 0 43.54048-19.5328 43.54048-43.5456v-70.12352c0.03072-24.00768-19.49696-43.53536-43.50464-43.53536z" fill="#BAD4FF" p-id="2030"></path><path d="M870.38464 804.8896h-47.7696l-93.21472-130.43712c38.35904-13.51168 66.06848-49.72544 66.06848-92.6464 0-54.37952-44.20096-98.6112-98.5856-98.6112s-98.59584 44.23168-98.59584 98.6112c0 42.92096 27.74016 79.13472 66.07872 92.6464l-93.24032 130.43712h-47.73888c-24.00768 0-43.53536 19.52256-43.53536 43.53536v70.12352c0 24.00768 19.52768 43.5456 43.53536 43.5456h346.96192c24.00768 0 43.54048-19.5328 43.54048-43.5456v-70.12352c0.03072-24.00768-19.49696-43.53536-43.50464-43.53536z m-234.76736-223.0784c0-33.78176 27.46368-61.30176 61.27616-61.30176 33.80736 0 61.27104 27.4944 61.27104 61.30176 0 33.59232-27.17184 60.9024-60.6976 61.23008h-1.152c-33.51552-0.3328-60.6976-27.6224-60.6976-61.23008z m55.54688 119.38816l10.97216-0.69632 74.60352 104.38656h-159.70816l74.13248-103.69024z m185.46688 217.37984h-0.03072c0 3.38432-2.83648 6.2208-6.21568 6.2208h-346.97728c-3.3792 0-6.2208-2.83648-6.2208-6.2208v-70.12864c0-3.3792 2.8416-6.2208 6.2208-6.2208h346.99776c3.3792 0 6.2208 2.8416 6.2208 6.2208v70.12864z" fill="#4E8CEE" p-id="2031"></path></svg>