<?xml version="1.0" standalone="no"?><!DOCTYPE svg PUBLIC "-//W3C//DTD SVG 1.1//EN" "http://www.w3.org/Graphics/SVG/1.1/DTD/svg11.dtd"><svg t="1539090598325" class="icon" style="" viewBox="0 0 1036 1024" version="1.1" xmlns="http://www.w3.org/2000/svg" p-id="1158" xmlns:xlink="http://www.w3.org/1999/xlink" width="202.34375" height="200"><defs><style type="text/css"></style></defs><path d="M518.00064 490.24c-188.04224 0-340.48 152.43264-340.48 340.48 0 30.22848 3.9424 44.18048 11.33568 72.08448l656.90112 5.08928c8.28928-29.41952 12.7232-45.10208 12.7232-77.17376 0-188.04736-152.43776-340.48-340.48-340.48z" fill="#BAD4FF" p-id="1159"></path><path d="M178.70848 932.91008c-15.37536 0-27.88352-12.40576-27.88352-27.648v-74.9056c0-149.85728 90.8544-282.752 231.45984-338.57536l15.91296-6.3232-13.50656-10.52672c-52.77696-41.22112-83.05664-102.79424-83.05664-168.92928 0-118.50752 97.07008-214.91712 216.3968-214.91712s216.3968 96.4096 216.3968 214.91712c0 66.13504-30.27968 127.70816-83.05664 168.92928l-13.50656 10.53184 15.90784 6.31808c140.6208 55.82336 231.47008 188.71808 231.45984 338.57536v74.9056c0 15.25248-12.50304 27.65312-27.8784 27.65312l-678.64576-0.00512z m339.36384-412.00128c-171.74528 0-311.47008 138.81856-311.47008 309.44256v47.25248h622.85824v-47.25248c0-170.61888-139.67872-309.44256-311.38816-309.44256z m-0.04096-374.528c-88.57088 0-160.61952 71.6032-160.61952 159.62112s72.04864 159.62112 160.61952 159.62112c88.56576 0 160.63488-71.6032 160.63488-159.62112S606.60224 146.3808 518.03136 146.3808zM27.89376 820.55168c-15.37536 0-27.89376-12.40064-27.89376-27.648v-57.9328c0-108.81536 60.09344-207.33952 156.8512-257.10592l11.38688-5.86752-8.63744-9.47712c-29.97248-32.82944-46.47936-75.09504-46.47936-119.02464 0-93.824 75.88864-172.66176 169.84576-177.28-14.75584 19.94752-25.91232 41.02144-33.78176 63.7184-47.63136 16.45568-80.28672 62.4896-80.28672 113.5616 0 47.77984 28.33408 91.42784 72.18688 111.21152 12.1856 4.59776 19.69664 14.43328 19.69664 25.7024 0 11.44832-8.18688 21.86752-20.37248 25.91744l-6.51776 1.5104c-104.8832 26.29632-178.10432 119.69536-178.10432 227.12832v30.30016h35.4304a384.0256 384.0256 0 0 0-5.44256 55.29088H27.89376v-0.00512z m921.99424-0.01024a384.80896 384.80896 0 0 0-5.43744-55.28064h35.43552v-30.30016c0-107.42784-73.19552-200.81664-177.9968-227.09248l-7.48544-1.78176c-11.43808-3.84512-19.52768-14.42304-19.52768-25.68192 0-11.10016 7.51104-21.0944 19.11808-25.46176 44.25216-19.94752 72.7808-63.67232 72.7808-111.45216 0-51.072-32.67072-97.1008-81.29024-114.54464-6.93248-21.85728-18.2784-43.24352-32.89088-62.7456 93.99808 4.56192 169.93792 83.41504 169.93792 177.29024 0 43.95008-16.50176 86.2208-46.47424 119.02464l-8.64256 9.47712 11.40736 5.86752c96.72704 49.76128 156.82048 148.27008 156.82048 257.1008v57.93792c0 15.24224-12.49792 27.63776-27.8784 27.63776h-57.87648v0.00512z" fill="#4E8CEE" p-id="1160"></path></svg>