<?xml version="1.0" standalone="no"?><!DOCTYPE svg PUBLIC "-//W3C//DTD SVG 1.1//EN" "http://www.w3.org/Graphics/SVG/1.1/DTD/svg11.dtd"><svg t="1539090637457" class="icon" style="" viewBox="0 0 1024 1024" version="1.1" xmlns="http://www.w3.org/2000/svg" p-id="2151" xmlns:xlink="http://www.w3.org/1999/xlink" width="200" height="200"><defs><style type="text/css"></style></defs><path d="M236.31872 894.55616h588.8768l-41.23136-461.8496-197.77536 219.06432-124.61056-105.72288-224.78848 216.09472-13.9776 19.27168z" fill="#BAD4FF" p-id="2152"></path><path d="M779.99104 431.54432h48.44032v462.94528h-48.44032V431.54432zM586.1888 650.03008h48.44032v244.45952h-48.44032v-244.45952zM387.27168 619.95008h48.4352v274.53952h-48.4352v-274.53952zM188.35456 762.14272h48.4352v132.34688h-48.4352v-132.34688zM829.7472 141.73184l-195.58912 45.65504 63.36512 62.01344-175.30368 191.04256-87.99744-86.72768-249.10336 249.10336 34.24768 34.2528 215.10656-215.10656 89.4976 88.20736 208.19968-226.87744 64.27136 62.88896z" fill="#4E8CEE" p-id="2153"></path></svg>