<?xml version="1.0" standalone="no"?><!DOCTYPE svg PUBLIC "-//W3C//DTD SVG 1.1//EN" "http://www.w3.org/Graphics/SVG/1.1/DTD/svg11.dtd"><svg t="1539090604320" class="icon" style="" viewBox="0 0 1024 1024" version="1.1" xmlns="http://www.w3.org/2000/svg" p-id="1280" xmlns:xlink="http://www.w3.org/1999/xlink" width="200" height="200"><defs><style type="text/css"></style></defs><path d="M781.25056 457.41568H241.49504c-28.27776 0-51.2 22.92224-51.2 51.2v379.39712c0 28.27264 22.92224 51.2 51.2 51.2h539.75552c28.26752 0 51.2-22.92736 51.2-51.2V508.61568c0-28.27776-22.93248-51.2-51.2-51.2z" fill="#BAD4FF" p-id="1281"></path><path d="M781.25056 963.4304H241.49504c-41.58464 0-75.4176-33.83296-75.4176-75.4176V508.61568c0-41.58464 33.83296-75.4176 75.4176-75.4176h539.75552c41.58464 0 75.4176 33.83296 75.4176 75.4176v379.39712c0 41.58464-33.83296 75.4176-75.4176 75.4176zM241.49504 481.63328a27.01312 27.01312 0 0 0-26.9824 26.9824v379.39712a27.01312 27.01312 0 0 0 26.9824 26.9824h539.75552a27.008 27.008 0 0 0 26.9824-26.9824V508.61568a27.008 27.008 0 0 0-26.9824-26.9824H241.49504z" fill="#2C7CF2" p-id="1282"></path><path d="M724.04992 479.8976H299.95008a24.2176 24.2176 0 0 1-24.2176-24.2176V239.85152c0-110.17216 103.56736-177.8176 177.8176-177.8176h116.89984c83.9424 0 177.8176 76.04736 177.8176 177.8176V455.68a24.2176 24.2176 0 0 1-24.2176 24.2176z m-399.88224-48.4352h375.66464V239.85152c0-72.86272-69.55008-129.3824-129.3824-129.3824H453.55008c-52.75136 0-129.3824 50.40128-129.3824 129.3824V431.4624z" fill="#2C7CF2" p-id="1283"></path></svg>