<?xml version="1.0" standalone="no"?><!DOCTYPE svg PUBLIC "-//W3C//DTD SVG 1.1//EN" "http://www.w3.org/Graphics/SVG/1.1/DTD/svg11.dtd"><svg t="1539090660163" class="icon" style="" viewBox="0 0 1024 1024" version="1.1" xmlns="http://www.w3.org/2000/svg" p-id="2768" xmlns:xlink="http://www.w3.org/1999/xlink" width="200" height="200"><defs><style type="text/css"></style></defs><path d="M757.52448 459.07968a15.36 15.36 0 0 1-15.36 15.36h-460.3392a15.36 15.36 0 0 1-15.36-15.36V126.59712a15.36 15.36 0 0 1 15.36-15.36h460.3392a15.36 15.36 0 0 1 15.36 15.36v332.48256z" fill="#BAD4FF" p-id="2769"></path><path d="M709.08928 159.67232v266.33216h-394.1888V159.67232h394.1888m33.0752-48.4352h-460.3392a15.36 15.36 0 0 0-15.36 15.36v332.48256a15.36 15.36 0 0 0 15.36 15.36h460.3392a15.36 15.36 0 0 0 15.36-15.36V126.59712a15.36 15.36 0 0 0-15.36-15.36z" fill="#4E8CEE" p-id="2770"></path><path d="M601.17504 214.2464h48.44032v191.08864h-48.44032z" fill="#4E8CEE" p-id="2771"></path><path d="M801.408 913.71008H222.6432c-64.16896 0-116.3776-52.20864-116.3776-116.3776V226.66752c0-64.16896 52.20864-116.3776 116.3776-116.3776h578.77504c64.16896 0 116.3776 52.20864 116.3776 116.3776v570.66496c-0.01024 64.17408-52.21888 116.3776-116.38784 116.3776zM222.6432 158.72512c-37.46304 0-67.9424 30.47936-67.9424 67.9424v570.66496c0 37.46304 30.47936 67.9424 67.9424 67.9424h578.76992c37.46304 0 67.9424-30.47424 67.9424-67.9424l0.01024-570.66496c0-37.46304-30.47424-67.9424-67.9424-67.9424H222.6432z" fill="#4E8CEE" p-id="2772"></path></svg>