<?xml version="1.0" standalone="no"?><!DOCTYPE svg PUBLIC "-//W3C//DTD SVG 1.1//EN" "http://www.w3.org/Graphics/SVG/1.1/DTD/svg11.dtd"><svg t="1539090618511" class="icon" style="" viewBox="0 0 1024 1024" version="1.1" xmlns="http://www.w3.org/2000/svg" p-id="1652" xmlns:xlink="http://www.w3.org/1999/xlink" width="200" height="200"><defs><style type="text/css"></style></defs><path d="M801.14176 530.3552c0 217.07264-143.04256 382.82752-294.25152 382.82752-151.20384 0-294.25152-165.73952-294.25152-382.82752 0-217.08288 143.04768-382.8224 294.25152-382.8224 151.20384 0 294.25152 165.73952 294.25152 382.8224z" fill="#BAD4FF" p-id="1653"></path><path d="M984.45312 554.5728a24.23296 24.23296 0 0 1-24.22272-25.07776c0.19456-5.38112 0.29184-10.78272 0.29184-16.21504 0-124.928-52.53632-245.34528-144.13824-330.37312a24.2176 24.2176 0 0 1 32.95232-35.50208c101.44256 94.16192 159.63136 227.52256 159.63136 365.8752a508.2624 508.2624 0 0 1-0.32256 17.92512 24.2176 24.2176 0 0 1-24.192 23.36768zM785.60256 149.43744a24.10496 24.10496 0 0 1-14.32064-4.70528c-40.4736-29.74208-83.89632-50.02752-140.79488-65.79712a24.2176 24.2176 0 1 1 12.928-46.67392c62.82752 17.40288 111.10912 40.05376 156.544 73.44128a24.2176 24.2176 0 0 1-14.35648 43.73504zM236.9024 152.53504a24.22272 24.22272 0 0 1-14.21824-43.84256C309.34016 45.9776 405.9648 14.1824 509.86496 14.1824c25.472 0 44.73344 2.00192 65.82272 5.01248a24.2176 24.2176 0 1 1-6.84032 47.95392c-19.58912-2.7904-36.29056-4.52608-58.98752-4.52608-93.4912 0-180.56192 28.70272-258.78528 85.31456a24.09472 24.09472 0 0 1-14.17216 4.59776zM35.10784 549.0176a24.2176 24.2176 0 0 1-24.19712-23.63392 500.1216 500.1216 0 0 1-0.14336-12.09856c0-138.5728 58.3424-272.0768 160.06656-366.27968a24.2176 24.2176 0 0 1 32.91136 35.54304c-91.85792 85.06368-144.54272 205.61408-144.54272 330.73664 0 3.65568 0.04096 7.30112 0.128 10.9312a24.2176 24.2176 0 0 1-23.62368 24.79616l-0.59904 0.00512z" fill="#4E8CEE" p-id="1654"></path><path d="M782.4896 938.04544c-3.2 0-6.4512-0.64-9.56928-1.98656a24.21248 24.21248 0 0 1-12.66176-31.8208c107.14624-248.75008 113.58208-450.20672 18.6112-582.59456-82.58048-115.10784-215.1936-143.81568-266.48576-139.65824a24.2176 24.2176 0 1 1-3.89632-48.27648c71.3216-5.69344 218.49088 32.512 309.7344 159.70304 73.50784 102.46656 130.8416 294.9376-13.48608 629.98528a24.20736 24.20736 0 0 1-22.2464 14.64832zM259.87072 289.11616a24.22272 24.22272 0 0 1-17.9712-40.448c67.08736-74.32192 156.2368-97.95072 185.53344-105.71264 2.19136-0.57856 3.92192-1.03424 5.12512-1.39264a24.22272 24.22272 0 0 1 13.7984 46.43328c-1.536 0.45568-3.73248 1.04448-6.51776 1.78176-25.856 6.85056-104.54016 27.70432-161.98656 91.35104a24.1664 24.1664 0 0 1-17.98144 7.9872zM71.97696 716.51328a24.2176 24.2176 0 0 1-11.86304-45.34272c45.952-25.74848 57.5744-97.1008 69.87776-172.63616 9.88672-60.66176 20.10112-123.38176 50.62144-167.52128a24.2176 24.2176 0 1 1 39.84384 27.5456c-24.30976 35.15904-33.6384 92.40576-42.65984 147.7632-13.61408 83.54304-27.68896 169.9328-94.0032 207.09888a24.1152 24.1152 0 0 1-11.81696 3.09248zM122.14784 836.39808a24.2176 24.2176 0 0 1-14.0544-43.9552c117.07904-83.2768 129.8944-181.74464 142.28992-276.97152 10.93632-84.0448 22.25152-170.95168 116.61312-219.39712a24.2176 24.2176 0 1 1 22.1184 43.08992c-71.73632 36.82816-80.10752 101.13536-90.70592 182.5536-12.44672 95.6416-27.93984 214.66112-162.24256 310.19008a24.07424 24.07424 0 0 1-14.01856 4.49024z" fill="#4E8CEE" p-id="1655"></path><path d="M680.04864 368.11776a24.14592 24.14592 0 0 1-17.10592-7.07072c-91.02336-90.79808-213.4272-51.52768-214.656-51.1232a24.2176 24.2176 0 1 1-15.27296-45.96224c6.15936-2.048 152.19712-48.86016 264.1408 62.7968a24.2176 24.2176 0 0 1-17.10592 41.35936zM747.54048 602.78272a24.1664 24.1664 0 0 1-5.84192-0.72192 24.20736 24.20736 0 0 1-17.68448-29.32736c18.73408-75.648-33.3824-164.99712-33.90976-165.888a24.2176 24.2176 0 0 1 41.68704-24.65792c2.57024 4.34688 62.67904 107.52 39.22944 202.1888a24.21248 24.21248 0 0 1-23.48032 18.4064zM614.16448 994.56a17.92512 17.92512 0 0 1-10.27584-32.6144c25.36448-20.4032 108.46208-263.55712 114.88768-295.07584a17.93024 17.93024 0 0 1 17.24416-15.98976c9.80992-0.27136 18.17088 7.44448 18.4832 17.33632 0.38912 12.17536-39.13728 125.56288-49.792 154.93632-54.46144 150.13376-72.576 162.78528-80.31232 168.18688a17.8176 17.8176 0 0 1-10.23488 3.22048zM204.27776 917.51936a24.21248 24.21248 0 0 1-13.73184-44.1856c1.8176-1.2544 181.86752-128.22016 179.47648-370.05312a24.2176 24.2176 0 0 1 23.97696-24.45824c13.2864 0.04096 24.32 10.60352 24.45824 23.97696 2.65728 268.40576-192.2304 404.8128-200.52992 410.49088a24.07424 24.07424 0 0 1-13.64992 4.22912z" fill="#4E8CEE" p-id="1656"></path><path d="M458.6496 1006.51008a24.2176 24.2176 0 0 1-16.09728-42.32192c118.74304-105.5744 162.99008-338.10432 162.99008-459.86816 0-44.26752-45.33248-84.5824-95.104-84.5824-51.72736 0-90.83904 53.26848-91.96544 89.18016-0.41984 13.3632-11.6224 23.89504-24.96512 23.44448a24.2176 24.2176 0 0 1-23.44448-24.96512c1.9712-62.93504 63.7184-136.09472 140.37504-136.09472 76.4672 0 143.54432 62.1568 143.54432 133.0176 0 135.34208-47.73888 379.14112-179.24608 496.07168a24.17152 24.17152 0 0 1-16.08704 6.1184z" fill="#4E8CEE" p-id="1657"></path><path d="M330.26048 975.2576a24.2176 24.2176 0 0 1-14.0032-43.99104c62.72-44.36992 178.54464-260.49536 169.99936-416.6656a24.2176 24.2176 0 0 1 22.8608-25.50784c13.27104-0.67584 24.77568 9.50272 25.50272 22.8608 9.86112 180.3008-119.3728 408.61696-190.39744 458.8544a24.0896 24.0896 0 0 1-13.96224 4.44928zM614.14912 994.56a17.92512 17.92512 0 0 1-12.39552-30.86336c29.67552-28.41088 112.01024-273.20832 117.02272-296.832a17.93024 17.93024 0 0 1 17.24416-15.98464c9.80992-0.27136 18.17088 7.44448 18.4832 17.33632 0.4096 12.78976-88.36096 283.44832-127.96416 321.37216a17.85344 17.85344 0 0 1-12.3904 4.97152z" fill="#4E8CEE" p-id="1658"></path><path d="M614.14912 994.56a17.92512 17.92512 0 0 1-12.83072-30.42816c33.6128-34.47808 112.94208-275.6864 117.45792-297.20064a17.92 17.92 0 0 1 17.24928-16.0512c9.80992-0.27136 18.17088 7.44448 18.4832 17.33632 0.5888 18.31936-86.60992 278.94784-127.52384 320.93696a17.92 17.92 0 0 1-12.83584 5.40672z" fill="#4E8CEE" p-id="1659"></path><path d="M614.12864 1000.8576a24.22784 24.22784 0 0 1-19.70176-38.27712c64.16896-90.05568 114.33472-273.35168 118.02624-295.64416a24.2176 24.2176 0 0 1 23.3728-22.35392c13.22496-0.52224 24.5504 10.0608 24.98048 23.42912 0.50176 15.52384-54.07744 220.43136-126.92992 322.67776a24.18688 24.18688 0 0 1-19.74784 10.16832z m98.29888-333.55264c-0.09216 1.024-0.04608 1.78688-0.03072 2.25792a23.68 23.68 0 0 1 0.03072-2.25792z" fill="#4E8CEE" p-id="1660"></path></svg>