<?xml version="1.0" standalone="no"?><!DOCTYPE svg PUBLIC "-//W3C//DTD SVG 1.1//EN" "http://www.w3.org/Graphics/SVG/1.1/DTD/svg11.dtd"><svg t="1539090573630" class="icon" style="" viewBox="0 0 1024 1024" version="1.1" xmlns="http://www.w3.org/2000/svg" p-id="912" xmlns:xlink="http://www.w3.org/1999/xlink" width="200" height="200"><defs><style type="text/css"></style></defs><path d="M642.2272 922.17856h-0.01024c-15.80032 0-31.16032-6.53312-41.07776-17.47968-13.52192-14.8224-56.35072-53.36064-91.40736-53.36064-34.816 0-78.30528 38.7584-90.79296 52.34176-9.90208 10.76224-25.14944 17.18272-40.80128 17.18272-7.45472 0-14.4896-1.42848-20.9152-4.25472l-1.12128-0.49152-106.56256-59.59168-1.05984-0.7424c-19.39968-13.57824-26.7776-40.1408-17.17248-61.77792 0.0768-0.16896 9.8304-22.67648 9.8304-43.20256 0-62.27968-50.66752-112.95232-112.95744-112.95232h-3.77344l-0.6912 0.01024c-17.83808 0-32.36352-15.85152-37.00736-40.38144-0.36864-1.96096-9.09312-48.4864-9.09312-85.14048s8.71936-83.17952 9.088-85.1456c4.70016-24.84224 19.54304-40.79616 37.69856-40.36608h3.77344c62.2848 0 112.95744-50.67264 112.95744-112.95744 0-20.52096-9.74848-43.01824-9.85088-43.24352-9.6-21.62688-2.17088-48.1792 17.31072-61.7216l1.10592-0.76288 112.4608-61.76768 1.17248-0.49664c6.32832-2.69824 13.26592-4.0704 20.61312-4.0704 15.61088 0 30.89408 6.28736 40.8832 16.80896 13.312 13.93664 55.38304 50.18112 89.44128 50.18112 33.73056 0 75.54048-35.52256 88.81152-49.21856 9.92768-10.31168 25.10336-16.4864 40.57088-16.4864 7.49568 0 14.56128 1.41312 20.992 4.21376l1.14176 0.49664 108.6208 60.34432 1.07008 0.74752c19.4304 13.56288 26.8288 40.12544 17.21344 61.78304-0.0768 0.16384-9.82528 22.67136-9.82528 43.19744 0 62.27968 50.66752 112.95744 112.95232 112.95744h3.77856c18.12992-0.40448 32.98816 15.52384 37.68832 40.36608 0.36864 1.96096 9.09312 48.4864 9.09312 85.1456 0 36.64896-8.72448 83.17952-9.09312 85.14048-4.70016 24.84224-19.5584 40.73984-37.69344 40.3712h-3.77344c-62.27968 0-112.95232 50.66752-112.95232 112.95232 0 20.52096 9.74848 43.01824 9.84576 43.24352 9.59488 21.6064 2.18624 48.16384-17.26464 61.7216l-1.09056 0.75264-110.44864 61.05088-1.152 0.49664c-6.31808 2.72896-13.23008 4.10624-20.52608 4.10624z m-3.36384-52.03456c0.49664 0.32256 1.88928 0.87552 3.3536 0.87552l0.16384-0.00512 103.1936-57.0368c-2.48832-5.79072-13.88544-33.8688-13.88544-63.16544 0-87.6032 69.00736-159.40608 155.51488-163.89632 1.24416-6.87616 8.00256-45.54752 8.00256-74.56768 0-29.01504-6.7584-67.67616-8.00256-74.56256-86.50752-4.49536-155.51488-76.288-155.51488-163.90144 0-29.33248 11.42784-57.45664 13.9008-63.19616l-101.51936-56.40704c-0.11264-0.00512-0.26112-0.01536-0.41984-0.01536-1.73056 0-3.34848 0.62976-3.88608 0.99328-1.70496 1.75104-16.41984 16.67072-37.5552 31.5392-31.28832 22.016-60.88192 33.17248-87.94112 33.17248-27.33568 0-57.15968-11.38176-88.64768-33.82784-21.26336-15.1552-36.04992-30.36672-37.75488-32.14336-0.5376-0.36864-2.176-1.01888-3.92192-1.01888l-0.36352 0.01024-105.14944 57.7536c2.51904 5.8624 13.87008 33.8944 13.87008 63.13472 0 87.6032-69.00736 159.40096-155.51488 163.89632-1.24416 6.88128-8.00256 45.54752-8.00256 74.56768 0 29.00992 6.7584 67.67104 8.00768 74.56768 86.50752 4.49024 155.50976 76.28288 155.50976 163.8912 0 29.39392-11.4688 57.56928-13.91104 63.23712l99.52256 55.64928 0.22016 0.00512c1.45408 0 2.83136-0.53248 3.31776-0.84992 1.85856-2.00192 16.73216-17.73056 38.13376-33.41824 31.91296-23.38816 62.24384-35.2512 90.1376-35.2512 28.16512 0 58.7264 12.0832 90.82368 35.92192 21.53984 15.99488 36.46464 32.0256 38.31808 34.048z" fill="#4E8CEE" p-id="913"></path><path d="M505.28768 338.5344c-98.46784 0-178.5856 80.11264-178.5856 178.5856s80.11264 178.5856 178.5856 178.5856S683.8784 615.58784 683.8784 517.12s-80.11776-178.5856-178.59072-178.5856z m0 300.06272c-64.9728 0-121.49248-56.4992-121.49248-121.47712s56.51456-121.49248 121.49248-121.49248c64.97792 0 121.48224 56.51456 121.48224 121.49248s-56.4992 121.47712-121.48224 121.47712z" fill="#4E8CEE" p-id="914"></path><path d="M505.28768 394.41408c-64.9728 0-122.71104 57.73312-122.71104 122.70592s57.73312 122.68544 122.71104 122.68544c64.97792 0 122.69056-57.70752 122.69056-122.68544s-57.70752-122.70592-122.69056-122.70592z" fill="#BAD4FF" p-id="915"></path></svg>