<?xml version="1.0" standalone="no"?><!DOCTYPE svg PUBLIC "-//W3C//DTD SVG 1.1//EN" "http://www.w3.org/Graphics/SVG/1.1/DTD/svg11.dtd"><svg t="1539090613708" class="icon" style="" viewBox="0 0 1024 1024" version="1.1" xmlns="http://www.w3.org/2000/svg" p-id="1527" xmlns:xlink="http://www.w3.org/1999/xlink" width="200" height="200"><defs><style type="text/css"></style></defs><path d="M517.28896 679.68S757.76 458.24 750.08 288c-1.28 0-35.50208-207.36-232.79104-211.2S288 262.4 288 262.4s-7.34208 222.72 229.28896 417.28z" fill="#BAD4FF" p-id="1528"></path><path d="M592.21504 329.38496c0 41.94304-34.00704 75.94496-75.95008 75.94496C474.32192 405.33504 440.32 371.33312 440.32 329.38496c0-41.94304 34.00192-75.94496 75.94496-75.94496s75.95008 34.00192 75.95008 75.94496z" fill="#FFFFFF" p-id="1529"></path><path d="M517.28896 442.78784c64.43008 0 116.8896-51.1488 116.8896-114.07872 0-62.94016-52.45952-114.07872-116.8896-114.07872-64.42496 0-116.89472 51.13856-116.89472 114.07872 0.00512 62.93504 52.46464 114.07872 116.89472 114.07872z m0-177.2544c32.43008 0 63.80032 31.40608 63.80032 63.84128 0 32.384-31.37024 63.84128-63.80032 63.84128-32.37888 0-63.80032-31.45728-63.80032-63.84128 0-32.43008 31.42144-63.84128 63.80032-63.84128z m-113.13152 344.71424c1.68448 2.41664 3.34336 4.37248 4.69504 5.78048 39.4496 48.10752 79.19104 80.11264 80.91648 81.47968l27.68896 22.19008 27.5712-22.3488c1.72544-1.37216 41.33888-33.76128 80.70656-81.71008 1.34656-1.43872 3.07712-3.44064 4.736-5.90336 56.28928-73.8816 121.14432-175.7952 136.97024-268.4672 3.05152-21.12512 3.1232-33.92 3.1232-35.32288 0.53248-69.248-21.74976-124.0832-72.00256-172.8-48.66048-47.18592-113.0496-73.15968-181.25824-73.15968-67.9424 0-132.16256 25.97376-180.82304 73.15968-50.52928 48.96768-72.98048 104.15104-72.45312 173.9008 0 1.10592 0.08704 13.94688 3.01056 34.05312 16.9728 99.1744 90.83904 208.69632 137.11872 269.14816z m113.13152-493.48096c106.5216 0 203.96032 90.93632 203.19232 197.5552 0 0 0 9.63072-2.31936 25.63584-12.73856 74.65984-78.03904 172.25728-126.27968 235.41248-0.38912 0.75776-1.17248 1.4848-1.54112 1.8688-33.58208 41.21088-73.05216 74.20928-73.05216 74.20928s-39.47008-32.6144-73.04704-73.8304a9.60512 9.60512 0 0 1-1.54624-1.8688c-48.24064-62.7712-113.54112-165.87776-126.2848-240.18944-2.31424-15.95904-2.31424-25.63584-2.31424-25.63584-0.77312-106.61376 96.67584-193.15712 203.19232-193.15712z" fill="#4E8CEE" p-id="1530"></path><path d="M861.11232 824.61696H140.45696c-54.61504 0-95.80032-38.9888-95.80032-90.68544 0-51.69152 41.18528-90.6752 95.80032-90.6752h126.63296a24.2176 24.2176 0 0 1 0 48.4352H140.45696c-22.81472 0-47.36512 13.21472-47.36512 42.23488 0 27.73504 23.82848 42.24512 47.36512 42.24512h720.65024a24.2176 24.2176 0 0 1 0.00512 48.44544z" fill="#4E8CEE" p-id="1531"></path><path d="M880.73216 957.73696H231.76192a24.2176 24.2176 0 0 1 0-48.4352h648.96512c22.81472 0 47.37024-13.21984 47.37024-42.24512 0-29.02016-24.55552-42.23488-47.37024-42.23488h-141.98272a24.2176 24.2176 0 0 1 0-48.4352h141.98272c54.62016 0 95.81056 38.98368 95.81056 90.6752 0 51.6864-41.18528 90.6752-95.80544 90.6752z" fill="#4E8CEE" p-id="1532"></path></svg>