<?xml version="1.0" standalone="no"?><!DOCTYPE svg PUBLIC "-//W3C//DTD SVG 1.1//EN" "http://www.w3.org/Graphics/SVG/1.1/DTD/svg11.dtd"><svg t="1539090644439" class="icon" style="" viewBox="0 0 1024 1024" version="1.1" xmlns="http://www.w3.org/2000/svg" p-id="2397" xmlns:xlink="http://www.w3.org/1999/xlink" width="200" height="200"><defs><style type="text/css"></style></defs><path d="M81.92 419.84h846.08v288H81.92z" fill="#BAD4FF" p-id="2398"></path><path d="M789.20192 349.80864l-191.72864 155.06432-202.79808-137.6256a26.3168 26.3168 0 0 0-32.38912 2.22208l-161.98656 145.80224A26.3168 26.3168 0 1 0 235.52 554.40384L382.17728 422.4l201.89696 137.00608a26.22976 26.22976 0 0 0 14.77632 4.54144 26.27072 26.27072 0 0 0 16.55296-5.85728l206.90432-167.34208a26.32192 26.32192 0 0 0 3.9168-37.0176 26.3168 26.3168 0 0 0-37.02272-3.92192z" fill="#4E8CEE" p-id="2399"></path><path d="M899.82976 139.56096h-361.68192v-39.13216c0-14.75584-12.07808-27.19232-26.8288-26.91072a26.32704 26.32704 0 0 0-25.81504 26.3168v39.72608h-361.6768c-32.96768 0-59.69408 26.7264-59.69408 59.69408v491.55584c0 32.96768 26.7264 59.6992 59.69408 59.6992h361.68192v30.01344l-163.47136 123.86304a26.32704 26.32704 0 1 0 31.7952 41.9584l131.67104-99.77344s8.5504-6.272 16.01024-11.43296a17.85856 17.85856 0 0 1 20.41344 0.05632l16.22016 11.38176 131.67616 99.77344a26.19904 26.19904 0 0 0 15.87712 5.34528 26.32192 26.32192 0 0 0 15.9232-47.30368l-163.47136-123.86816v-30.01344h361.68192c32.96768 0 59.6992-26.7264 59.6992-59.69408V199.24992c-0.01024-32.96256-26.73152-59.68896-59.70432-59.68896z m7.05024 551.24992c0 3.8912-3.15904 7.05024-7.05024 7.05024H123.8272a7.05024 7.05024 0 0 1-7.04512-7.05024V199.24992c0-3.88608 3.16416-7.04512 7.04512-7.04512h776.00256c3.8912 0 7.05024 3.15904 7.05024 7.04512v491.56096z" fill="#4E8CEE" p-id="2400"></path></svg>