<?xml version="1.0" standalone="no"?><!DOCTYPE svg PUBLIC "-//W3C//DTD SVG 1.1//EN" "http://www.w3.org/Graphics/SVG/1.1/DTD/svg11.dtd"><svg t="1539090669908" class="icon" style="" viewBox="0 0 1024 1024" version="1.1" xmlns="http://www.w3.org/2000/svg" p-id="3138" xmlns:xlink="http://www.w3.org/1999/xlink" width="200" height="200"><defs><style type="text/css"></style></defs><path d="M831.050 146.15h-638.1c-66.375 0-119.7 53.55-119.7 119.7v492.3c0 65.92 53.55 119.7 119.7 119.7h638.325c66.15 0 119.7-53.545 119.7-119.7v-492.525c-0.225-66.15-53.775-119.475-119.925-119.475zM636.425 465.425l270.238-212.85c0.67 4.275 1.125 8.55 1.125 13.050v492.3c0 10.125-1.8 19.795-5.4 28.795l-265.963-321.295zM196.105 189.125h632.033c24.75 0 47.25 11.25 61.875 29.25l-382.963 294.3-372.595-294.525c14.661-17.779 36.691-29.026 61.348-29.026 0.106 0 0.213 0 0.319 0.001zM121.405 786.725c-3.375-9-5.4-18.67-5.4-28.795v-492.305c0-4.5 0.45-9 1.125-13.275l270.67 213.295-266.395 321.080zM192.95 834.433c-19.125 0-36.675-3.613-50.4-14.633l276.3-330.533 75.375 67.733c7.2 5.85 17.55 5.85 24.525 0.225l85.95-67.275 276.3 330.075c-13.725 11.025-31.275 15.088-50.175 15.088l-637.875-0.68z" fill="#4E8CEE" p-id="3139"></path><path d="M195.979 188.45h632.038c24.75 0 47.25 11.25 61.875 29.25l-382.958 294.3-372.605-294.525c14.625-17.775 36.675-29.025 61.65-29.025z" fill="#BAD4FF" p-id="3140"></path></svg>