<?xml version="1.0" standalone="no"?><!DOCTYPE svg PUBLIC "-//W3C//DTD SVG 1.1//EN" "http://www.w3.org/Graphics/SVG/1.1/DTD/svg11.dtd"><svg t="1539090640852" class="icon" style="" viewBox="0 0 1024 1024" version="1.1" xmlns="http://www.w3.org/2000/svg" p-id="2273" xmlns:xlink="http://www.w3.org/1999/xlink" width="200" height="200"><defs><style type="text/css"></style></defs><path d="M301.312 867.82976a25.6 25.6 0 0 1-25.6 25.6H125.952a25.6 25.6 0 0 1-25.6-25.6V531.2a25.6 25.6 0 0 1 25.6-25.6h149.76a25.6 25.6 0 0 1 25.6 25.6v336.62976z" fill="#BAD4FF" p-id="2274"></path><path d="M275.712 917.65248H125.952c-27.4688 0-49.8176-22.3488-49.8176-49.8176V531.2c0-27.4688 22.3488-49.8176 49.8176-49.8176h149.76c27.4688 0 49.8176 22.3488 49.8176 49.8176v336.62976c0 27.4688-22.3488 49.82272-49.8176 49.82272zM125.952 529.8176a1.3824 1.3824 0 0 0-1.3824 1.3824v336.62976c0 0.75776 0.61952 1.3824 1.3824 1.3824h149.76a1.3824 1.3824 0 0 0 1.3824-1.3824V531.2a1.3824 1.3824 0 0 0-1.3824-1.3824H125.952z" fill="#4E8CEE" p-id="2275"></path><path d="M612.58752 867.82976a25.6 25.6 0 0 1-25.6 25.6H437.248a25.6 25.6 0 0 1-25.6-25.6V157.43488a25.6 25.6 0 0 1 25.6-25.6h149.74464a25.6 25.6 0 0 1 25.6 25.6v710.39488z" fill="#BAD4FF" p-id="2276"></path><path d="M586.98752 917.65248H437.248c-27.4688 0-49.8176-22.3488-49.8176-49.8176V157.43488c0-27.4688 22.3488-49.8176 49.8176-49.8176h149.74464c27.4688 0 49.8176 22.3488 49.8176 49.8176v710.39488c0 27.4688-22.3488 49.82272-49.82272 49.82272zM437.248 156.05248a1.3824 1.3824 0 0 0-1.3824 1.3824v710.39488c0 0.75776 0.61952 1.3824 1.3824 1.3824h149.74464a1.3824 1.3824 0 0 0 1.3824-1.3824V157.43488a1.3824 1.3824 0 0 0-1.3824-1.3824H437.248zM898.30912 917.65248h-149.76c-27.4688 0-49.8176-22.3488-49.8176-49.8176v-461.056c0-27.4688 22.3488-49.8176 49.8176-49.8176h149.76c27.4688 0 49.8176 22.3488 49.8176 49.8176v461.05088c0.00512 27.4688-22.3488 49.82272-49.8176 49.82272z m-149.76-512.256a1.3824 1.3824 0 0 0-1.3824 1.3824v461.05088c0 0.75776 0.61952 1.3824 1.3824 1.3824h149.76a1.3824 1.3824 0 0 0 1.3824-1.3824V406.77888a1.3824 1.3824 0 0 0-1.3824-1.3824h-149.76z" fill="#4E8CEE" p-id="2277"></path></svg>